<svg width="212" height="37" viewBox="0 0 212 37" fill="none" xmlns="http://www.w3.org/2000/svg">
<path d="M6.61035 5.74509C6.61035 6.18715 6.53743 6.58591 6.3916 6.94138C6.24577 7.29685 6.03613 7.59991 5.7627 7.85056C5.49382 8.10121 5.16113 8.2949 4.76465 8.43162C4.37272 8.56834 3.90332 8.6367 3.35645 8.6367H2.35156V11.8222C2.35156 11.8587 2.34017 11.8906 2.31738 11.9179C2.29915 11.9453 2.26725 11.9681 2.22168 11.9863C2.18066 12 2.12142 12.0114 2.04395 12.0205C1.97103 12.0342 1.8776 12.041 1.76367 12.041C1.64974 12.041 1.55404 12.0342 1.47656 12.0205C1.40365 12.0114 1.3444 12 1.29883 11.9863C1.25326 11.9681 1.22135 11.9453 1.20312 11.9179C1.1849 11.8906 1.17578 11.8587 1.17578 11.8222V3.66013C1.17578 3.47784 1.22363 3.34796 1.31934 3.27048C1.41504 3.19301 1.52214 3.15427 1.64062 3.15427H3.53418C3.72559 3.15427 3.90788 3.16339 4.08105 3.18162C4.25879 3.19529 4.46615 3.22947 4.70312 3.28416C4.94466 3.33429 5.18848 3.43227 5.43457 3.5781C5.68522 3.71938 5.89714 3.89483 6.07031 4.10447C6.24349 4.3141 6.37565 4.55792 6.4668 4.83591C6.5625 5.10935 6.61035 5.41241 6.61035 5.74509ZM5.37305 5.8408C5.37305 5.48077 5.30469 5.17999 5.16797 4.93845C5.03581 4.69692 4.86947 4.5169 4.66895 4.39841C4.47298 4.27993 4.2679 4.20473 4.05371 4.17283C3.84408 4.14093 3.639 4.12498 3.43848 4.12498H2.35156V7.67283H3.41113C3.7666 7.67283 4.06055 7.62726 4.29297 7.53611C4.52995 7.44496 4.72819 7.31964 4.8877 7.16013C5.0472 6.99607 5.16797 6.80239 5.25 6.57908C5.33203 6.35121 5.37305 6.10512 5.37305 5.8408ZM13.3232 8.48631C13.3232 8.66404 13.2777 8.79164 13.1865 8.86912C13.0999 8.94203 12.9997 8.97849 12.8857 8.97849H8.85254C8.85254 9.32029 8.88672 9.62791 8.95508 9.90134C9.02344 10.1748 9.13737 10.4095 9.29688 10.6054C9.45638 10.8014 9.66374 10.9518 9.91895 11.0566C10.1742 11.1614 10.4863 11.2138 10.8555 11.2138C11.1471 11.2138 11.4069 11.1911 11.6348 11.1455C11.8626 11.0954 12.0586 11.0407 12.2227 10.9814C12.3913 10.9222 12.528 10.8698 12.6328 10.8242C12.7422 10.7741 12.8242 10.749 12.8789 10.749C12.9108 10.749 12.9382 10.7581 12.9609 10.7763C12.9883 10.79 13.0088 10.8128 13.0225 10.8447C13.0361 10.8766 13.0452 10.9222 13.0498 10.9814C13.0589 11.0361 13.0635 11.1045 13.0635 11.1865C13.0635 11.2457 13.0612 11.2982 13.0566 11.3437C13.0521 11.3847 13.0452 11.4235 13.0361 11.4599C13.0316 11.4918 13.0202 11.5215 13.002 11.5488C12.9883 11.5761 12.9678 11.6035 12.9404 11.6308C12.9176 11.6536 12.8447 11.6946 12.7217 11.7539C12.5986 11.8086 12.4391 11.8633 12.2432 11.9179C12.0472 11.9726 11.8193 12.0205 11.5596 12.0615C11.3044 12.1071 11.0309 12.1299 10.7393 12.1299C10.2334 12.1299 9.78906 12.0592 9.40625 11.9179C9.02799 11.7767 8.70898 11.567 8.44922 11.289C8.18945 11.011 7.99349 10.6624 7.86133 10.2431C7.72917 9.82387 7.66309 9.33624 7.66309 8.78025C7.66309 8.2516 7.73145 7.77765 7.86816 7.35838C8.00488 6.93455 8.20085 6.5768 8.45605 6.28513C8.71582 5.98891 9.02799 5.76332 9.39258 5.60838C9.75716 5.44887 10.165 5.36912 10.6162 5.36912C11.0993 5.36912 11.5094 5.44659 11.8467 5.60154C12.1885 5.75649 12.4688 5.96612 12.6875 6.23045C12.9062 6.49021 13.0658 6.79783 13.166 7.1533C13.2708 7.50421 13.3232 7.88019 13.3232 8.28123V8.48631ZM12.1885 8.15134C12.2021 7.5589 12.07 7.09405 11.792 6.75681C11.5186 6.41957 11.1107 6.25095 10.5684 6.25095C10.2904 6.25095 10.0465 6.30336 9.83691 6.40818C9.62728 6.513 9.45182 6.652 9.31055 6.82517C9.16927 6.99835 9.0599 7.20115 8.98242 7.43357C8.90495 7.66144 8.86165 7.90069 8.85254 8.15134H12.1885ZM23.0166 11.8769C23.0166 11.9043 23.0075 11.9293 22.9893 11.9521C22.971 11.9704 22.9391 11.9863 22.8936 12C22.8525 12.0136 22.7956 12.0228 22.7227 12.0273C22.6543 12.0364 22.5654 12.041 22.4561 12.041C22.3285 12.041 22.2236 12.0364 22.1416 12.0273C22.0641 12.0182 22.0003 12.0068 21.9502 11.9931C21.9046 11.9749 21.8704 11.9544 21.8477 11.9316C21.8249 11.9043 21.8066 11.8747 21.793 11.8428L21.1367 10.2568C21.0501 10.0517 20.959 9.87628 20.8633 9.73045C20.7721 9.58006 20.6696 9.45929 20.5557 9.36814C20.4417 9.277 20.3096 9.21091 20.1592 9.1699C20.0133 9.12433 19.8402 9.10154 19.6396 9.10154H19.1816V11.8838C19.1816 11.9066 19.1702 11.9293 19.1475 11.9521C19.1247 11.9704 19.0905 11.9863 19.0449 12C18.9993 12.0136 18.9401 12.0228 18.8672 12.0273C18.7988 12.0364 18.7168 12.041 18.6211 12.041C18.5254 12.041 18.4411 12.0364 18.3682 12.0273C18.2952 12.0228 18.236 12.0136 18.1904 12C18.1449 11.9863 18.1107 11.9704 18.0879 11.9521C18.0651 11.9293 18.0537 11.9066 18.0537 11.8838V9.10154H17.5957C17.3952 9.10154 17.2197 9.12433 17.0693 9.1699C16.9189 9.21091 16.7845 9.277 16.666 9.36814C16.5475 9.45929 16.4404 9.58006 16.3447 9.73045C16.2536 9.87628 16.1647 10.0517 16.0781 10.2568L15.4219 11.8428C15.4128 11.8747 15.3945 11.9043 15.3672 11.9316C15.3444 11.9544 15.3102 11.9749 15.2646 11.9931C15.2236 12.0068 15.1621 12.0182 15.0801 12.0273C15.0026 12.0364 14.9023 12.041 14.7793 12.041C14.6745 12.041 14.5856 12.0364 14.5127 12.0273C14.4398 12.0228 14.3805 12.0136 14.335 12C14.2939 11.9863 14.2643 11.9704 14.2461 11.9521C14.2279 11.9293 14.2188 11.9043 14.2188 11.8769C14.2188 11.8496 14.2233 11.8154 14.2324 11.7744C14.2461 11.7288 14.2689 11.6719 14.3008 11.6035L14.9775 10.0517C15.0641 9.84666 15.1576 9.66664 15.2578 9.5117C15.3581 9.35675 15.4629 9.22231 15.5723 9.10838C15.6862 8.99444 15.807 8.89874 15.9346 8.82127C16.0667 8.73923 16.2103 8.67315 16.3652 8.62302V8.60935C16.2559 8.57289 16.1465 8.52732 16.0371 8.47263C15.9323 8.41339 15.8275 8.33364 15.7227 8.23338C15.6178 8.12856 15.5153 7.99868 15.415 7.84373C15.3148 7.68878 15.2168 7.49737 15.1211 7.26951L14.5537 5.90916C14.5309 5.84991 14.5127 5.7975 14.499 5.75193C14.4854 5.70636 14.4785 5.66306 14.4785 5.62205C14.4785 5.59926 14.4854 5.57875 14.499 5.56052C14.5173 5.53774 14.5446 5.51951 14.5811 5.50584C14.6221 5.49216 14.6768 5.48305 14.7451 5.47849C14.818 5.46938 14.9092 5.46482 15.0186 5.46482C15.1416 5.46482 15.2441 5.46938 15.3262 5.47849C15.4082 5.48305 15.4743 5.49444 15.5244 5.51267C15.5745 5.5309 15.611 5.55369 15.6338 5.58103C15.6611 5.60838 15.6794 5.64028 15.6885 5.67673L16.2285 7.09861C16.306 7.29457 16.3857 7.46319 16.4678 7.60447C16.5544 7.74575 16.6523 7.86196 16.7617 7.9531C16.8711 8.03969 16.9919 8.10349 17.124 8.14451C17.2607 8.18097 17.418 8.1992 17.5957 8.1992H18.0537V5.61521C18.0537 5.59243 18.0651 5.57192 18.0879 5.55369C18.1107 5.5309 18.1449 5.51495 18.1904 5.50584C18.236 5.49216 18.2952 5.48305 18.3682 5.47849C18.4411 5.46938 18.5254 5.46482 18.6211 5.46482C18.7168 5.46482 18.7988 5.46938 18.8672 5.47849C18.9401 5.48305 18.9993 5.49216 19.0449 5.50584C19.0905 5.51495 19.1247 5.5309 19.1475 5.55369C19.1702 5.57192 19.1816 5.59243 19.1816 5.61521V8.1992H19.6396C19.8174 8.1992 19.9746 8.17869 20.1113 8.13767C20.248 8.09666 20.3711 8.03285 20.4805 7.94627C20.5944 7.85512 20.6947 7.74119 20.7812 7.60447C20.8724 7.46319 20.9567 7.29457 21.0342 7.09861L21.6084 5.67673C21.6266 5.64028 21.6449 5.60838 21.6631 5.58103C21.6859 5.55369 21.7178 5.5309 21.7588 5.51267C21.8044 5.49444 21.8636 5.48305 21.9365 5.47849C22.014 5.46938 22.1143 5.46482 22.2373 5.46482C22.3467 5.46482 22.4355 5.46938 22.5039 5.47849C22.5768 5.48305 22.6315 5.49216 22.668 5.50584C22.709 5.51951 22.7363 5.53774 22.75 5.56052C22.7682 5.57875 22.7773 5.59926 22.7773 5.62205C22.7773 5.66306 22.7705 5.70636 22.7568 5.75193C22.7432 5.7975 22.7249 5.84991 22.7021 5.90916L22.1143 7.26951C22.0186 7.49737 21.9183 7.68878 21.8135 7.84373C21.7132 7.99412 21.6107 8.11944 21.5059 8.2197C21.401 8.31996 21.2962 8.39972 21.1914 8.45896C21.0911 8.51821 20.9886 8.56378 20.8838 8.59568V8.60935C21.0387 8.66404 21.18 8.73012 21.3076 8.80759C21.4398 8.88507 21.5605 8.98305 21.6699 9.10154C21.7839 9.21547 21.8887 9.35219 21.9844 9.5117C22.0801 9.66664 22.1735 9.84666 22.2646 10.0517L22.9346 11.6035C22.9482 11.6354 22.9596 11.665 22.9688 11.6924C22.9824 11.7197 22.9915 11.747 22.9961 11.7744C23.0007 11.7972 23.0052 11.8177 23.0098 11.8359C23.0143 11.8496 23.0166 11.8633 23.0166 11.8769ZM29.9688 11.8359C29.9688 11.8678 29.9596 11.8974 29.9414 11.9248C29.9232 11.9521 29.8936 11.9749 29.8525 11.9931C29.8115 12.0068 29.7546 12.0182 29.6816 12.0273C29.6087 12.0364 29.5176 12.041 29.4082 12.041C29.2988 12.041 29.2077 12.0364 29.1348 12.0273C29.0618 12.0182 29.0026 12.0068 28.957 11.9931C28.9115 11.9749 28.8796 11.9521 28.8613 11.9248C28.8431 11.8974 28.834 11.8678 28.834 11.8359V8.2949C28.834 8.11716 28.8385 7.93715 28.8477 7.75486C28.8568 7.56801 28.8682 7.38572 28.8818 7.20798C28.777 7.39028 28.6608 7.57029 28.5332 7.74802C28.4102 7.9212 28.2848 8.09438 28.1572 8.26756L25.5459 11.8359C25.514 11.8724 25.4844 11.9043 25.457 11.9316C25.4342 11.959 25.4023 11.9817 25.3613 12C25.3249 12.0136 25.277 12.0228 25.2178 12.0273C25.1585 12.0364 25.0856 12.041 24.999 12.041C24.8988 12.041 24.8167 12.0364 24.7529 12.0273C24.6891 12.0182 24.6367 12.0068 24.5957 11.9931C24.5592 11.9749 24.5319 11.9521 24.5137 11.9248C24.5 11.8974 24.4932 11.8678 24.4932 11.8359V5.6699C24.4932 5.638 24.5 5.60838 24.5137 5.58103C24.5319 5.55369 24.5615 5.5309 24.6025 5.51267C24.6481 5.49444 24.7074 5.48305 24.7803 5.47849C24.8532 5.46938 24.9421 5.46482 25.0469 5.46482C25.2656 5.46482 25.416 5.48305 25.498 5.51951C25.5801 5.55141 25.6211 5.60154 25.6211 5.6699V9.23142C25.6211 9.40916 25.6165 9.58689 25.6074 9.76463C25.5983 9.9378 25.5869 10.111 25.5732 10.2842C25.6781 10.111 25.7829 9.94236 25.8877 9.7783C25.9971 9.60968 26.1133 9.44562 26.2363 9.28611L28.8818 5.6699C28.9092 5.63344 28.9365 5.60154 28.9639 5.5742C28.9958 5.54685 29.0322 5.52634 29.0732 5.51267C29.1188 5.49444 29.1712 5.48305 29.2305 5.47849C29.2897 5.46938 29.3672 5.46482 29.4629 5.46482C29.5586 5.46482 29.6383 5.46938 29.7021 5.47849C29.7705 5.48305 29.8229 5.49444 29.8594 5.51267C29.9004 5.5309 29.9277 5.55369 29.9414 5.58103C29.9596 5.60838 29.9688 5.64028 29.9688 5.67673V11.8359ZM39.833 11.7676C39.8376 11.8678 39.8057 11.9385 39.7373 11.9795C39.6689 12.0205 39.5299 12.041 39.3203 12.041C39.2064 12.041 39.113 12.0387 39.04 12.0342C38.9671 12.0296 38.9102 12.0205 38.8691 12.0068C38.8281 11.9931 38.7985 11.9749 38.7803 11.9521C38.7666 11.9248 38.7575 11.8906 38.7529 11.8496L38.3086 8.26072C38.2949 8.13312 38.2812 7.9964 38.2676 7.85056C38.2539 7.70473 38.2402 7.55662 38.2266 7.40623C38.2129 7.25584 38.1992 7.10545 38.1855 6.95506C38.1764 6.80466 38.165 6.66339 38.1514 6.53123L38.1445 6.374C38.1035 6.50616 38.0602 6.64516 38.0146 6.79099C37.9691 6.93683 37.9189 7.08494 37.8643 7.23533C37.8141 7.38572 37.764 7.53611 37.7139 7.6865C37.6683 7.83689 37.625 7.97817 37.584 8.11033L36.292 11.7539C36.2738 11.8086 36.251 11.8541 36.2236 11.8906C36.2008 11.9271 36.1667 11.9567 36.1211 11.9795C36.0801 12.0023 36.0254 12.0182 35.957 12.0273C35.8932 12.0364 35.8135 12.041 35.7178 12.041C35.6221 12.041 35.5423 12.0364 35.4785 12.0273C35.4147 12.0182 35.36 12.0045 35.3145 11.9863C35.2734 11.9635 35.2393 11.9339 35.2119 11.8974C35.1846 11.861 35.1618 11.8154 35.1436 11.7607L33.8994 8.11033C33.8538 7.98272 33.806 7.84601 33.7559 7.70017C33.7103 7.55434 33.6624 7.40623 33.6123 7.25584C33.5667 7.10089 33.5212 6.94822 33.4756 6.79783C33.43 6.64744 33.3913 6.50616 33.3594 6.374L33.3525 6.53123C33.3389 6.66339 33.3252 6.80466 33.3115 6.95506C33.2979 7.10545 33.2819 7.25584 33.2637 7.40623C33.25 7.55662 33.234 7.70473 33.2158 7.85056C33.2021 7.9964 33.1908 8.13312 33.1816 8.26072L32.7578 11.7881C32.7533 11.8428 32.7419 11.8883 32.7236 11.9248C32.71 11.9567 32.6803 11.9817 32.6348 12C32.5892 12.0136 32.5299 12.0228 32.457 12.0273C32.3841 12.0364 32.2884 12.041 32.1699 12.041C32.056 12.041 31.9648 12.0364 31.8965 12.0273C31.8327 12.0182 31.7826 12.0023 31.7461 11.9795C31.7142 11.9567 31.6937 11.9293 31.6846 11.8974C31.6755 11.861 31.6755 11.8177 31.6846 11.7676L32.3613 5.94334C32.3841 5.7975 32.4342 5.68813 32.5117 5.61521C32.5938 5.53774 32.7145 5.499 32.874 5.499H33.4141C33.5462 5.499 33.6579 5.51039 33.749 5.53318C33.8447 5.55141 33.9245 5.58559 33.9883 5.63572C34.0566 5.68585 34.1136 5.75421 34.1592 5.8408C34.2048 5.92283 34.248 6.02765 34.2891 6.15525L35.1982 8.77341C35.2484 8.93292 35.3008 9.0947 35.3555 9.25877C35.4102 9.41827 35.4603 9.57778 35.5059 9.73728C35.556 9.89223 35.6016 10.0449 35.6426 10.1953C35.6882 10.3457 35.7292 10.4892 35.7656 10.626H35.7793C35.8203 10.4847 35.8613 10.3366 35.9023 10.1816C35.9479 10.0221 35.9958 9.86261 36.0459 9.7031C36.096 9.53904 36.1462 9.37726 36.1963 9.21775C36.251 9.05825 36.3034 8.90558 36.3535 8.75974L37.2627 6.15525C37.2992 6.04132 37.3379 5.94334 37.3789 5.86131C37.4245 5.77472 37.4792 5.70636 37.543 5.65623C37.6068 5.60154 37.682 5.5628 37.7686 5.54002C37.8597 5.51267 37.9691 5.499 38.0967 5.499H38.6299C38.7939 5.499 38.917 5.53318 38.999 5.60154C39.0856 5.6699 39.1357 5.77927 39.1494 5.92966L39.833 11.7676ZM50.374 8.6572C50.374 9.19496 50.3148 9.67804 50.1963 10.1064C50.0824 10.5348 49.9115 10.8994 49.6836 11.2002C49.4603 11.4964 49.1823 11.7265 48.8496 11.8906C48.5169 12.0501 48.1364 12.1299 47.708 12.1299C47.5257 12.1299 47.3571 12.1116 47.2021 12.0752C47.0472 12.0387 46.8945 11.9817 46.7441 11.9043C46.5983 11.8268 46.4525 11.7288 46.3066 11.6103C46.1608 11.4918 46.0059 11.3528 45.8418 11.1933V14.2695C45.8418 14.306 45.8327 14.3379 45.8145 14.3652C45.7962 14.3926 45.7666 14.4153 45.7256 14.4336C45.6846 14.4518 45.6276 14.4655 45.5547 14.4746C45.4818 14.4837 45.3883 14.4883 45.2744 14.4883C45.165 14.4883 45.0739 14.4837 45.001 14.4746C44.9281 14.4655 44.8688 14.4518 44.8232 14.4336C44.7822 14.4153 44.7526 14.3926 44.7344 14.3652C44.7207 14.3379 44.7139 14.306 44.7139 14.2695V5.67673C44.7139 5.63572 44.7207 5.60382 44.7344 5.58103C44.748 5.55369 44.7754 5.5309 44.8164 5.51267C44.8574 5.49444 44.9098 5.48305 44.9736 5.47849C45.0374 5.46938 45.1149 5.46482 45.2061 5.46482C45.3018 5.46482 45.3792 5.46938 45.4385 5.47849C45.5023 5.48305 45.5547 5.49444 45.5957 5.51267C45.6367 5.5309 45.6641 5.55369 45.6777 5.58103C45.696 5.60382 45.7051 5.63572 45.7051 5.67673V6.50388C45.8919 6.31248 46.0719 6.14614 46.2451 6.00486C46.4183 5.86358 46.5915 5.74737 46.7646 5.65623C46.9424 5.56052 47.1224 5.48989 47.3047 5.44431C47.4915 5.39418 47.6875 5.36912 47.8926 5.36912C48.3392 5.36912 48.7197 5.45571 49.0342 5.62888C49.3486 5.80206 49.6038 6.03904 49.7998 6.33982C50.0003 6.6406 50.1462 6.99151 50.2373 7.39256C50.3285 7.78904 50.374 8.21059 50.374 8.6572ZM49.1846 8.78709C49.1846 8.47263 49.1595 8.16957 49.1094 7.87791C49.0638 7.58168 48.9818 7.31964 48.8633 7.09177C48.7493 6.86391 48.5944 6.68162 48.3984 6.5449C48.2025 6.40818 47.9587 6.33982 47.667 6.33982C47.5212 6.33982 47.3776 6.36261 47.2363 6.40818C47.0951 6.4492 46.9515 6.51756 46.8057 6.61326C46.6598 6.7044 46.5072 6.82745 46.3477 6.9824C46.1882 7.13279 46.0195 7.31964 45.8418 7.54295V9.99021C46.1517 10.3685 46.4456 10.6579 46.7236 10.8584C47.0016 11.0589 47.2933 11.1592 47.5986 11.1592C47.8812 11.1592 48.1227 11.0908 48.3232 10.9541C48.5283 10.8174 48.6924 10.6351 48.8154 10.4072C48.943 10.1793 49.0365 9.92413 49.0957 9.64158C49.1549 9.35903 49.1846 9.0742 49.1846 8.78709ZM56.7041 11.8359C56.7041 11.8906 56.6859 11.9316 56.6494 11.959C56.613 11.9863 56.5628 12.0068 56.499 12.0205C56.4352 12.0342 56.3418 12.041 56.2188 12.041C56.1003 12.041 56.0046 12.0342 55.9316 12.0205C55.8633 12.0068 55.8132 11.9863 55.7812 11.959C55.7493 11.9316 55.7334 11.8906 55.7334 11.8359V11.2207C55.4645 11.5078 55.1637 11.7311 54.8311 11.8906C54.5029 12.0501 54.1543 12.1299 53.7852 12.1299C53.4616 12.1299 53.1676 12.0866 52.9033 12C52.6436 11.9179 52.4202 11.7972 52.2334 11.6377C52.0511 11.4782 51.9076 11.2822 51.8027 11.0498C51.7025 10.8174 51.6523 10.553 51.6523 10.2568C51.6523 9.91046 51.723 9.60968 51.8643 9.35447C52.0055 9.09926 52.2083 8.88735 52.4727 8.71873C52.737 8.55011 53.0605 8.42478 53.4434 8.34275C53.8262 8.25616 54.2568 8.21287 54.7354 8.21287H55.583V7.73435C55.583 7.49737 55.5579 7.28774 55.5078 7.10545C55.4577 6.92315 55.3757 6.77276 55.2617 6.65427C55.1523 6.53123 55.0088 6.44008 54.8311 6.38084C54.6533 6.31703 54.4346 6.28513 54.1748 6.28513C53.8968 6.28513 53.6462 6.31931 53.4229 6.38767C53.2041 6.45147 53.0104 6.52439 52.8418 6.60642C52.6777 6.6839 52.5387 6.75681 52.4248 6.82517C52.3154 6.88897 52.2334 6.92088 52.1787 6.92088C52.1423 6.92088 52.1104 6.91176 52.083 6.89353C52.0557 6.8753 52.0306 6.84796 52.0078 6.8115C51.9896 6.77504 51.9759 6.72947 51.9668 6.67478C51.9577 6.61554 51.9531 6.55173 51.9531 6.48338C51.9531 6.36944 51.96 6.28058 51.9736 6.21677C51.9919 6.14841 52.0306 6.08461 52.0898 6.02537C52.1536 5.96612 52.2607 5.89776 52.4111 5.82029C52.5615 5.73826 52.7347 5.66534 52.9307 5.60154C53.1266 5.53318 53.3408 5.47849 53.5732 5.43748C53.8057 5.3919 54.0404 5.36912 54.2773 5.36912C54.7194 5.36912 55.0954 5.41925 55.4053 5.51951C55.7152 5.61977 55.9658 5.76788 56.1572 5.96384C56.3486 6.15525 56.4876 6.39451 56.5742 6.68162C56.6608 6.96873 56.7041 7.30369 56.7041 7.6865V11.8359ZM55.583 9.02634H54.6191C54.3092 9.02634 54.0404 9.05369 53.8125 9.10838C53.5846 9.15851 53.3955 9.23598 53.2451 9.3408C53.0947 9.44106 52.9831 9.5641 52.9102 9.70994C52.8418 9.85121 52.8076 10.0153 52.8076 10.2021C52.8076 10.5211 52.9079 10.7763 53.1084 10.9678C53.3135 11.1546 53.5983 11.248 53.9629 11.248C54.2591 11.248 54.5326 11.1728 54.7832 11.0224C55.0384 10.872 55.305 10.6419 55.583 10.332V9.02634ZM64.5176 8.6572C64.5176 9.17218 64.4469 9.64158 64.3057 10.0654C64.1644 10.4892 63.9593 10.8561 63.6904 11.166C63.4215 11.4713 63.0934 11.7083 62.7061 11.8769C62.3232 12.0456 61.8903 12.1299 61.4072 12.1299C60.9059 12.1299 60.4707 12.0501 60.1016 11.8906C59.737 11.7265 59.4339 11.4827 59.1924 11.1592C58.9554 10.831 58.7799 10.4232 58.666 9.93552C58.5521 9.44334 58.4951 8.86684 58.4951 8.20603C58.4951 7.64548 58.5202 7.13051 58.5703 6.66111C58.625 6.18715 58.7002 5.76332 58.7959 5.38963C58.8916 5.01137 59.0055 4.69008 59.1377 4.42576C59.2699 4.16144 59.4043 3.9518 59.541 3.79685C59.6823 3.6419 59.819 3.51886 59.9512 3.42771C60.0879 3.33201 60.2383 3.24542 60.4023 3.16795C60.5664 3.08591 60.751 3.01528 60.9561 2.95603C61.1657 2.89679 61.4004 2.84438 61.6602 2.79881L63.8545 2.4365C63.932 2.42283 63.9958 2.41827 64.0459 2.42283C64.096 2.42283 64.1348 2.44106 64.1621 2.47752C64.1895 2.50942 64.2077 2.5641 64.2168 2.64158C64.2259 2.71905 64.2305 2.82615 64.2305 2.96287C64.2305 3.05401 64.2259 3.13149 64.2168 3.19529C64.2077 3.25909 64.1917 3.3115 64.1689 3.35252C64.1462 3.39353 64.112 3.42543 64.0664 3.44822C64.0208 3.47101 63.9616 3.48923 63.8887 3.50291L61.8447 3.8447C61.6396 3.8766 61.4596 3.91306 61.3047 3.95408C61.1497 3.99509 61.0107 4.04067 60.8877 4.0908C60.7692 4.14093 60.6644 4.19789 60.5732 4.2617C60.4821 4.32094 60.391 4.39841 60.2998 4.49412C60.2087 4.58982 60.1243 4.70831 60.0469 4.84959C59.974 4.99086 59.9102 5.15265 59.8555 5.33494C59.8053 5.51267 59.762 5.70864 59.7256 5.92283C59.6937 6.13246 59.6618 6.35805 59.6299 6.59959C59.7803 6.44008 59.9398 6.29653 60.1084 6.16892C60.277 6.03676 60.4548 5.92511 60.6416 5.83396C60.8285 5.74282 61.0244 5.67446 61.2295 5.62888C61.4391 5.57875 61.6602 5.55369 61.8926 5.55369C62.3346 5.55369 62.7197 5.62888 63.0479 5.77927C63.3805 5.92511 63.654 6.13474 63.8682 6.40818C64.0869 6.68162 64.2487 7.00974 64.3535 7.39256C64.4629 7.77537 64.5176 8.19692 64.5176 8.6572ZM63.3486 8.75291C63.3486 8.45213 63.319 8.16502 63.2598 7.89158C63.2051 7.61814 63.1139 7.37888 62.9863 7.17381C62.8633 6.96417 62.6947 6.79783 62.4805 6.67478C62.2708 6.54718 62.0111 6.48338 61.7012 6.48338C61.5098 6.48338 61.3298 6.50844 61.1611 6.55857C60.9971 6.60414 60.8353 6.67706 60.6758 6.77732C60.5163 6.87302 60.3568 6.99379 60.1973 7.13963C60.0378 7.2809 59.8669 7.44952 59.6846 7.64548C59.68 7.7184 59.6777 7.80271 59.6777 7.89841C59.6777 7.99412 59.6777 8.0921 59.6777 8.19236C59.6777 8.68455 59.7074 9.11749 59.7666 9.49119C59.8304 9.86489 59.9329 10.1771 60.0742 10.4277C60.2155 10.6784 60.4023 10.8675 60.6348 10.9951C60.8672 11.1227 61.152 11.1865 61.4893 11.1865C61.7855 11.1865 62.0498 11.1295 62.2822 11.0156C62.5146 10.8971 62.7083 10.7331 62.8633 10.5234C63.0228 10.3138 63.1436 10.0586 63.2256 9.75779C63.3076 9.45701 63.3486 9.12205 63.3486 8.75291ZM71.9688 8.68455C71.9688 9.18585 71.9027 9.64841 71.7705 10.0722C71.6383 10.4915 71.4401 10.8538 71.1758 11.1592C70.916 11.4645 70.5879 11.7038 70.1914 11.8769C69.7995 12.0456 69.3438 12.1299 68.8242 12.1299C68.3184 12.1299 67.8763 12.0547 67.498 11.9043C67.1243 11.7539 66.8122 11.5351 66.5615 11.248C66.3109 10.9609 66.124 10.6123 66.001 10.2021C65.8779 9.79197 65.8164 9.32713 65.8164 8.80759C65.8164 8.30629 65.8802 7.84601 66.0078 7.42673C66.14 7.00291 66.3359 6.63832 66.5957 6.33298C66.86 6.02765 67.1882 5.79067 67.5801 5.62205C67.972 5.45343 68.43 5.36912 68.9541 5.36912C69.46 5.36912 69.8997 5.44431 70.2734 5.5947C70.6517 5.74509 70.9661 5.96384 71.2168 6.25095C71.4674 6.53806 71.6543 6.8867 71.7773 7.29685C71.9049 7.70701 71.9688 8.16957 71.9688 8.68455ZM70.7793 8.75974C70.7793 8.42706 70.7474 8.11261 70.6836 7.81638C70.6243 7.52016 70.5241 7.26039 70.3828 7.03709C70.2415 6.81378 70.0501 6.63832 69.8086 6.51072C69.5671 6.37856 69.2663 6.31248 68.9062 6.31248C68.5736 6.31248 68.2865 6.37172 68.0449 6.49021C67.8079 6.6087 67.612 6.77732 67.457 6.99607C67.3021 7.21026 67.1859 7.46547 67.1084 7.7617C67.0355 8.05792 66.999 8.38149 66.999 8.7324C66.999 9.06964 67.0286 9.38637 67.0879 9.68259C67.1517 9.97882 67.2542 10.2386 67.3955 10.4619C67.5413 10.6806 67.735 10.8561 67.9766 10.9883C68.2181 11.1159 68.5189 11.1797 68.8789 11.1797C69.207 11.1797 69.4919 11.1204 69.7334 11.0019C69.9749 10.8834 70.1732 10.7171 70.3281 10.5029C70.4831 10.2887 70.597 10.0335 70.6699 9.73728C70.7428 9.44106 70.7793 9.11521 70.7793 8.75974ZM77.8271 6.0117C77.8271 6.10284 77.8226 6.18032 77.8135 6.24412C77.8044 6.30792 77.7884 6.36033 77.7656 6.40134C77.7474 6.44236 77.7246 6.47426 77.6973 6.49705C77.6699 6.51528 77.6357 6.52439 77.5947 6.52439H75.749V11.8291C75.749 11.8655 75.7399 11.8974 75.7217 11.9248C75.7035 11.9476 75.6738 11.9681 75.6328 11.9863C75.5918 12.0045 75.5348 12.0182 75.4619 12.0273C75.389 12.0364 75.2956 12.041 75.1816 12.041C75.0723 12.041 74.9811 12.0364 74.9082 12.0273C74.8353 12.0182 74.776 12.0045 74.7305 11.9863C74.6895 11.9681 74.6598 11.9476 74.6416 11.9248C74.6279 11.8974 74.6211 11.8655 74.6211 11.8291V6.52439H72.7754C72.7389 6.52439 72.7048 6.51528 72.6729 6.49705C72.6455 6.47426 72.6227 6.44236 72.6045 6.40134C72.5863 6.36033 72.5703 6.30792 72.5566 6.24412C72.5475 6.17576 72.543 6.09601 72.543 6.00486C72.543 5.92283 72.5475 5.84991 72.5566 5.78611C72.5703 5.72231 72.5863 5.6699 72.6045 5.62888C72.6273 5.58331 72.6523 5.55141 72.6797 5.53318C72.707 5.51039 72.7389 5.499 72.7754 5.499H77.5947C77.6312 5.499 77.6631 5.51039 77.6904 5.53318C77.7223 5.55141 77.7474 5.58331 77.7656 5.62888C77.7839 5.6699 77.7975 5.72459 77.8066 5.79295C77.8203 5.85675 77.8271 5.92966 77.8271 6.0117ZM86.1807 11.8291C86.1807 11.8655 86.1715 11.8974 86.1533 11.9248C86.1351 11.9476 86.1055 11.9681 86.0645 11.9863C86.0234 12.0045 85.9665 12.0182 85.8936 12.0273C85.8206 12.0364 85.7272 12.041 85.6133 12.041C85.5039 12.041 85.4128 12.0364 85.3398 12.0273C85.2669 12.0182 85.2077 12.0045 85.1621 11.9863C85.1211 11.9681 85.0915 11.9476 85.0732 11.9248C85.0596 11.8974 85.0527 11.8655 85.0527 11.8291V5.67673C85.0527 5.64028 85.0596 5.61065 85.0732 5.58787C85.0915 5.56052 85.1211 5.53774 85.1621 5.51951C85.2077 5.49672 85.2669 5.48305 85.3398 5.47849C85.4128 5.46938 85.5039 5.46482 85.6133 5.46482C85.7272 5.46482 85.8206 5.46938 85.8936 5.47849C85.9665 5.48305 86.0234 5.49672 86.0645 5.51951C86.1055 5.53774 86.1351 5.56052 86.1533 5.58787C86.1715 5.61065 86.1807 5.64028 86.1807 5.67673V11.8291ZM80.0762 7.84373C80.2448 7.83006 80.4134 7.82094 80.582 7.81638C80.7552 7.80727 80.9421 7.80271 81.1426 7.80271C81.6302 7.80271 82.0472 7.85284 82.3936 7.9531C82.7399 8.04881 83.0247 8.1878 83.248 8.37009C83.4759 8.55239 83.6423 8.77114 83.7471 9.02634C83.8519 9.277 83.9043 9.55955 83.9043 9.874C83.9043 10.1885 83.8473 10.4824 83.7334 10.7558C83.624 11.0293 83.4486 11.2663 83.207 11.4668C82.9701 11.6673 82.6647 11.8268 82.291 11.9453C81.9173 12.0592 81.4684 12.1162 80.9443 12.1162C80.8213 12.1162 80.6982 12.1139 80.5752 12.1094C80.4521 12.1094 80.3314 12.1048 80.2129 12.0957C80.0944 12.0911 79.9759 12.0843 79.8574 12.0752C79.7435 12.0661 79.6273 12.0547 79.5088 12.041C79.3174 12.0182 79.1761 11.9567 79.085 11.8564C78.9938 11.7562 78.9482 11.6035 78.9482 11.3984V5.67673C78.9482 5.64028 78.9551 5.61065 78.9688 5.58787C78.987 5.56052 79.0166 5.53774 79.0576 5.51951C79.1032 5.49672 79.1602 5.48305 79.2285 5.47849C79.3014 5.46938 79.3903 5.46482 79.4951 5.46482C79.7139 5.46482 79.8643 5.48305 79.9463 5.51951C80.0329 5.55141 80.0762 5.60382 80.0762 5.67673V7.84373ZM82.7285 9.9492C82.7285 9.76235 82.6989 9.59373 82.6396 9.44334C82.585 9.28839 82.4915 9.15851 82.3594 9.05369C82.2318 8.94431 82.0609 8.86228 81.8467 8.80759C81.6325 8.74835 81.3704 8.71873 81.0605 8.71873C80.8737 8.71873 80.7005 8.72328 80.541 8.7324C80.3815 8.74151 80.2266 8.75291 80.0762 8.76658V11.1318C80.2357 11.15 80.3929 11.166 80.5479 11.1797C80.7028 11.1933 80.8919 11.2002 81.1152 11.2002C81.6712 11.2002 82.0791 11.0908 82.3389 10.872C82.5986 10.6487 82.7285 10.3411 82.7285 9.9492ZM89.9404 6.53123C89.9404 6.67706 89.929 6.80011 89.9062 6.90037C89.888 7.00063 89.8493 7.08266 89.79 7.14646C89.7354 7.20571 89.6624 7.249 89.5713 7.27634C89.4801 7.29913 89.3639 7.31052 89.2227 7.31052C89.0768 7.31052 88.9583 7.29913 88.8672 7.27634C88.776 7.249 88.7031 7.20571 88.6484 7.14646C88.5938 7.08266 88.555 7.00063 88.5322 6.90037C88.514 6.80011 88.5049 6.67706 88.5049 6.53123C88.5049 6.37628 88.514 6.24868 88.5322 6.14841C88.555 6.0436 88.5938 5.96157 88.6484 5.90232C88.7031 5.83852 88.776 5.79522 88.8672 5.77244C88.9583 5.74509 89.0768 5.73142 89.2227 5.73142C89.3639 5.73142 89.4801 5.74509 89.5713 5.77244C89.6624 5.79522 89.7354 5.83852 89.79 5.90232C89.8493 5.96157 89.888 6.0436 89.9062 6.14841C89.929 6.24868 89.9404 6.37628 89.9404 6.53123ZM89.9404 11.2754C89.9404 11.4258 89.929 11.5511 89.9062 11.6513C89.888 11.7516 89.8493 11.8336 89.79 11.8974C89.7354 11.9567 89.6624 11.9977 89.5713 12.0205C89.4801 12.0478 89.3639 12.0615 89.2227 12.0615C89.0768 12.0615 88.9583 12.0478 88.8672 12.0205C88.776 11.9977 88.7031 11.9567 88.6484 11.8974C88.5938 11.8336 88.555 11.7516 88.5322 11.6513C88.514 11.5511 88.5049 11.4258 88.5049 11.2754C88.5049 11.125 88.514 10.9997 88.5322 10.8994C88.555 10.7946 88.5938 10.7125 88.6484 10.6533C88.7031 10.5941 88.776 10.5508 88.8672 10.5234C88.9583 10.4961 89.0768 10.4824 89.2227 10.4824C89.3639 10.4824 89.4801 10.4961 89.5713 10.5234C89.6624 10.5508 89.7354 10.5941 89.79 10.6533C89.8493 10.7125 89.888 10.7946 89.9062 10.8994C89.929 10.9997 89.9404 11.125 89.9404 11.2754Z" fill="#6B7073"/>
<path d="M103.241 11.8291C103.241 11.8655 103.232 11.8974 103.214 11.9248C103.196 11.9476 103.166 11.9681 103.125 11.9863C103.084 12.0045 103.027 12.0182 102.954 12.0273C102.881 12.0364 102.79 12.041 102.681 12.041C102.567 12.041 102.473 12.0364 102.4 12.0273C102.327 12.0182 102.268 12.0045 102.223 11.9863C102.182 11.9681 102.152 11.9476 102.134 11.9248C102.116 11.8974 102.106 11.8655 102.106 11.8291V6.45603H99.1738V11.8291C99.1738 11.8655 99.1647 11.8974 99.1465 11.9248C99.1283 11.9476 99.0964 11.9681 99.0508 11.9863C99.0098 12.0045 98.9528 12.0182 98.8799 12.0273C98.807 12.0364 98.7158 12.041 98.6064 12.041C98.4971 12.041 98.4059 12.0364 98.333 12.0273C98.2601 12.0182 98.2008 12.0045 98.1553 11.9863C98.1143 11.9681 98.0846 11.9476 98.0664 11.9248C98.0527 11.8974 98.0459 11.8655 98.0459 11.8291V5.90232C98.0459 5.7656 98.0755 5.66534 98.1348 5.60154C98.1986 5.53318 98.2852 5.499 98.3945 5.499H102.899C103.009 5.499 103.093 5.53318 103.152 5.60154C103.212 5.66534 103.241 5.7656 103.241 5.90232V11.8291ZM110.727 11.8291C110.727 11.8655 110.717 11.8974 110.699 11.9248C110.681 11.9476 110.651 11.9681 110.61 11.9863C110.569 12.0045 110.512 12.0182 110.439 12.0273C110.367 12.0364 110.275 12.041 110.166 12.041C110.052 12.041 109.959 12.0364 109.886 12.0273C109.813 12.0182 109.756 12.0045 109.715 11.9863C109.674 11.9681 109.644 11.9476 109.626 11.9248C109.608 11.8974 109.599 11.8655 109.599 11.8291V9.12888H106.461V11.8291C106.461 11.8655 106.452 11.8974 106.434 11.9248C106.415 11.9476 106.386 11.9681 106.345 11.9863C106.304 12.0045 106.247 12.0182 106.174 12.0273C106.101 12.0364 106.007 12.041 105.894 12.041C105.784 12.041 105.693 12.0364 105.62 12.0273C105.547 12.0182 105.488 12.0045 105.442 11.9863C105.401 11.9681 105.372 11.9476 105.354 11.9248C105.34 11.8974 105.333 11.8655 105.333 11.8291V5.67673C105.333 5.64028 105.34 5.61065 105.354 5.58787C105.372 5.56052 105.401 5.53774 105.442 5.51951C105.488 5.49672 105.547 5.48305 105.62 5.47849C105.693 5.46938 105.784 5.46482 105.894 5.46482C106.007 5.46482 106.101 5.46938 106.174 5.47849C106.247 5.48305 106.304 5.49672 106.345 5.51951C106.386 5.53774 106.415 5.56052 106.434 5.58787C106.452 5.61065 106.461 5.64028 106.461 5.67673V8.17869H109.599V5.67673C109.599 5.64028 109.608 5.61065 109.626 5.58787C109.644 5.56052 109.674 5.53774 109.715 5.51951C109.756 5.49672 109.813 5.48305 109.886 5.47849C109.959 5.46938 110.052 5.46482 110.166 5.46482C110.275 5.46482 110.367 5.46938 110.439 5.47849C110.512 5.48305 110.569 5.49672 110.61 5.51951C110.651 5.53774 110.681 5.56052 110.699 5.58787C110.717 5.61065 110.727 5.64028 110.727 5.67673V11.8291ZM115.594 8.54783C115.594 8.72556 115.573 8.84861 115.532 8.91697C115.491 8.98533 115.432 9.01951 115.354 9.01951H112.497C112.415 9.01951 112.354 8.98533 112.312 8.91697C112.271 8.84405 112.251 8.72101 112.251 8.54783C112.251 8.37465 112.271 8.25388 112.312 8.18552C112.354 8.11716 112.415 8.08298 112.497 8.08298H115.354C115.391 8.08298 115.423 8.08982 115.45 8.10349C115.482 8.11716 115.507 8.14451 115.525 8.18552C115.548 8.22198 115.564 8.26983 115.573 8.32908C115.587 8.38832 115.594 8.46124 115.594 8.54783ZM122.17 10.0586C122.17 10.3821 122.108 10.6715 121.985 10.9267C121.862 11.1774 121.68 11.3893 121.438 11.5625C121.197 11.7311 120.896 11.861 120.536 11.9521C120.176 12.0387 119.757 12.082 119.278 12.082C119.128 12.082 118.982 12.0797 118.841 12.0752C118.7 12.0752 118.563 12.0706 118.431 12.0615C118.299 12.0569 118.166 12.0501 118.034 12.041C117.907 12.0319 117.779 12.0205 117.651 12.0068C117.469 11.984 117.335 11.9248 117.248 11.8291C117.161 11.7288 117.118 11.583 117.118 11.3916V6.09373C117.118 5.90688 117.159 5.76332 117.241 5.66306C117.328 5.5628 117.458 5.50356 117.631 5.48533C117.749 5.47166 117.875 5.46026 118.007 5.45115C118.144 5.44203 118.283 5.4352 118.424 5.43064C118.565 5.42153 118.711 5.41469 118.861 5.41013C119.012 5.40558 119.164 5.4033 119.319 5.4033C119.761 5.4033 120.144 5.43976 120.468 5.51267C120.791 5.58559 121.06 5.69269 121.274 5.83396C121.489 5.97524 121.646 6.14841 121.746 6.35349C121.851 6.55857 121.903 6.79327 121.903 7.05759C121.903 7.40395 121.81 7.70017 121.623 7.94627C121.441 8.19236 121.17 8.36782 120.81 8.47263C121.261 8.56834 121.6 8.75291 121.828 9.02634C122.056 9.29978 122.17 9.64386 122.17 10.0586ZM120.81 7.20115C120.81 7.05076 120.782 6.91632 120.728 6.79783C120.673 6.67934 120.582 6.57908 120.454 6.49705C120.331 6.41502 120.169 6.35349 119.969 6.31248C119.773 6.27146 119.534 6.25095 119.251 6.25095C119.037 6.25095 118.841 6.25779 118.663 6.27146C118.485 6.28058 118.335 6.29197 118.212 6.30564V8.2197H119.36C119.83 8.2197 120.188 8.13312 120.434 7.95994C120.684 7.7822 120.81 7.52927 120.81 7.20115ZM121.015 10.0791C121.015 9.89679 120.983 9.73728 120.919 9.60056C120.855 9.45929 120.753 9.34308 120.611 9.25193C120.475 9.16078 120.297 9.09243 120.078 9.04685C119.864 9.00128 119.609 8.97849 119.312 8.97849H118.212V11.1592C118.299 11.1728 118.387 11.1842 118.479 11.1933C118.574 11.1979 118.67 11.2047 118.766 11.2138C118.866 11.2184 118.964 11.223 119.06 11.2275C119.16 11.2321 119.251 11.2344 119.333 11.2344C119.629 11.2344 119.882 11.2093 120.092 11.1592C120.301 11.1045 120.475 11.027 120.611 10.9267C120.753 10.8265 120.855 10.7057 120.919 10.5644C120.983 10.4186 121.015 10.2568 121.015 10.0791ZM128.254 10.8926C128.254 10.97 128.252 11.0384 128.247 11.0976C128.243 11.1523 128.233 11.2002 128.22 11.2412C128.211 11.2776 128.197 11.3118 128.179 11.3437C128.165 11.3711 128.129 11.4144 128.069 11.4736C128.015 11.5283 127.919 11.5989 127.782 11.6855C127.646 11.7676 127.491 11.8428 127.317 11.9111C127.149 11.9749 126.964 12.0273 126.764 12.0683C126.563 12.1094 126.356 12.1299 126.142 12.1299C125.7 12.1299 125.308 12.0569 124.966 11.9111C124.624 11.7653 124.337 11.5534 124.104 11.2754C123.877 10.9928 123.701 10.6487 123.578 10.2431C123.46 9.83298 123.4 9.36131 123.4 8.8281C123.4 8.22198 123.473 7.70245 123.619 7.26951C123.77 6.83201 123.972 6.47426 124.228 6.19627C124.487 5.91827 124.79 5.71319 125.137 5.58103C125.488 5.44431 125.866 5.37595 126.271 5.37595C126.467 5.37595 126.657 5.39418 126.839 5.43064C127.026 5.4671 127.197 5.51495 127.352 5.5742C127.507 5.63344 127.643 5.7018 127.762 5.77927C127.885 5.85675 127.974 5.92283 128.028 5.97752C128.083 6.0322 128.119 6.0755 128.138 6.1074C128.16 6.1393 128.179 6.17804 128.192 6.22361C128.206 6.26463 128.215 6.31248 128.22 6.36716C128.224 6.42185 128.227 6.49021 128.227 6.57224C128.227 6.74998 128.206 6.8753 128.165 6.94822C128.124 7.01658 128.074 7.05076 128.015 7.05076C127.946 7.05076 127.867 7.0143 127.775 6.94138C127.689 6.86391 127.577 6.7796 127.44 6.68845C127.304 6.59731 127.137 6.51528 126.941 6.44236C126.75 6.36489 126.522 6.32615 126.258 6.32615C125.715 6.32615 125.299 6.53578 125.007 6.95506C124.72 7.36977 124.576 7.97361 124.576 8.76658C124.576 9.16306 124.613 9.5117 124.686 9.81248C124.763 10.1087 124.875 10.3571 125.021 10.5576C125.166 10.7581 125.344 10.9085 125.554 11.0088C125.768 11.1045 126.012 11.1523 126.285 11.1523C126.545 11.1523 126.773 11.1113 126.969 11.0293C127.165 10.9472 127.333 10.8584 127.475 10.7627C127.62 10.6624 127.741 10.5735 127.837 10.4961C127.937 10.414 128.015 10.373 128.069 10.373C128.101 10.373 128.129 10.3821 128.151 10.4004C128.174 10.4186 128.192 10.4505 128.206 10.4961C128.224 10.5371 128.236 10.5918 128.24 10.6601C128.249 10.7239 128.254 10.8014 128.254 10.8926ZM138.214 11.5351C138.214 11.6217 138.207 11.6946 138.193 11.7539C138.18 11.8131 138.161 11.861 138.139 11.8974C138.116 11.9339 138.089 11.9612 138.057 11.9795C138.029 11.9931 138 12 137.968 12H133.347C133.315 12 133.285 11.9931 133.258 11.9795C133.23 11.9612 133.203 11.9339 133.176 11.8974C133.153 11.861 133.135 11.8131 133.121 11.7539C133.107 11.6946 133.101 11.6217 133.101 11.5351C133.101 11.4531 133.107 11.3825 133.121 11.3232C133.135 11.264 133.151 11.2161 133.169 11.1797C133.192 11.1386 133.217 11.109 133.244 11.0908C133.276 11.068 133.31 11.0566 133.347 11.0566H135.192V4.33006L133.483 5.34861C133.397 5.39418 133.326 5.42153 133.271 5.43064C133.221 5.43976 133.18 5.43064 133.148 5.4033C133.117 5.3714 133.094 5.32127 133.08 5.25291C133.071 5.18455 133.066 5.09796 133.066 4.99314C133.066 4.91567 133.069 4.84959 133.073 4.7949C133.082 4.74021 133.094 4.69464 133.107 4.65818C133.121 4.62172 133.139 4.58982 133.162 4.56248C133.189 4.53513 133.224 4.50779 133.265 4.48045L135.302 3.17478C135.32 3.16111 135.343 3.14972 135.37 3.1406C135.397 3.13149 135.432 3.12237 135.473 3.11326C135.514 3.10414 135.562 3.09959 135.616 3.09959C135.671 3.09503 135.739 3.09275 135.821 3.09275C135.931 3.09275 136.022 3.09731 136.095 3.10642C136.168 3.11554 136.225 3.12921 136.266 3.14744C136.307 3.16111 136.334 3.18162 136.348 3.20896C136.361 3.23175 136.368 3.25681 136.368 3.28416V11.0566H137.968C138.004 11.0566 138.038 11.068 138.07 11.0908C138.102 11.109 138.127 11.1386 138.146 11.1797C138.168 11.2161 138.184 11.264 138.193 11.3232C138.207 11.3825 138.214 11.4531 138.214 11.5351ZM145.583 7.55662C145.583 8.23565 145.528 8.85545 145.419 9.41599C145.314 9.97654 145.136 10.4596 144.886 10.8652C144.64 11.2663 144.316 11.5784 143.915 11.8017C143.514 12.0205 143.02 12.1299 142.432 12.1299C141.876 12.1299 141.406 12.0319 141.023 11.8359C140.645 11.6354 140.34 11.3437 140.107 10.9609C139.875 10.5735 139.709 10.0996 139.608 9.53904C139.513 8.97394 139.465 8.3268 139.465 7.59763C139.465 6.92315 139.52 6.30564 139.629 5.74509C139.738 5.17999 139.916 4.69692 140.162 4.29588C140.408 3.89028 140.732 3.5781 141.133 3.35935C141.534 3.13604 142.026 3.02439 142.609 3.02439C143.17 3.02439 143.639 3.12465 144.018 3.32517C144.4 3.52114 144.708 3.8128 144.94 4.20017C145.173 4.58298 145.337 5.05694 145.433 5.62205C145.533 6.18259 145.583 6.82745 145.583 7.55662ZM144.38 7.63865C144.38 7.19659 144.364 6.80011 144.332 6.4492C144.3 6.09828 144.252 5.78839 144.188 5.51951C144.129 5.25063 144.049 5.02048 143.949 4.82908C143.854 4.63312 143.737 4.47361 143.601 4.35056C143.464 4.22296 143.307 4.13181 143.129 4.07713C142.956 4.01788 142.76 3.98826 142.541 3.98826C142.154 3.98826 141.839 4.0794 141.598 4.2617C141.356 4.44399 141.165 4.69464 141.023 5.01365C140.887 5.33266 140.793 5.70636 140.743 6.13474C140.693 6.56313 140.668 7.02341 140.668 7.5156C140.668 8.17641 140.702 8.73923 140.771 9.20408C140.839 9.66437 140.946 10.0403 141.092 10.332C141.242 10.6237 141.431 10.8356 141.659 10.9678C141.892 11.0999 142.172 11.166 142.5 11.166C142.755 11.166 142.979 11.125 143.17 11.0429C143.366 10.9609 143.532 10.8447 143.669 10.6943C143.81 10.5394 143.926 10.3548 144.018 10.1406C144.109 9.92641 144.182 9.68943 144.236 9.42966C144.291 9.1699 144.327 8.88963 144.346 8.58884C144.368 8.28351 144.38 7.96677 144.38 7.63865ZM148.782 6.53123C148.782 6.67706 148.771 6.80011 148.748 6.90037C148.73 7.00063 148.691 7.08266 148.632 7.14646C148.577 7.20571 148.504 7.249 148.413 7.27634C148.322 7.29913 148.206 7.31052 148.064 7.31052C147.919 7.31052 147.8 7.29913 147.709 7.27634C147.618 7.249 147.545 7.20571 147.49 7.14646C147.436 7.08266 147.397 7.00063 147.374 6.90037C147.356 6.80011 147.347 6.67706 147.347 6.53123C147.347 6.37628 147.356 6.24868 147.374 6.14841C147.397 6.0436 147.436 5.96157 147.49 5.90232C147.545 5.83852 147.618 5.79522 147.709 5.77244C147.8 5.74509 147.919 5.73142 148.064 5.73142C148.206 5.73142 148.322 5.74509 148.413 5.77244C148.504 5.79522 148.577 5.83852 148.632 5.90232C148.691 5.96157 148.73 6.0436 148.748 6.14841C148.771 6.24868 148.782 6.37628 148.782 6.53123ZM148.782 11.2754C148.782 11.4258 148.771 11.5511 148.748 11.6513C148.73 11.7516 148.691 11.8336 148.632 11.8974C148.577 11.9567 148.504 11.9977 148.413 12.0205C148.322 12.0478 148.206 12.0615 148.064 12.0615C147.919 12.0615 147.8 12.0478 147.709 12.0205C147.618 11.9977 147.545 11.9567 147.49 11.8974C147.436 11.8336 147.397 11.7516 147.374 11.6513C147.356 11.5511 147.347 11.4258 147.347 11.2754C147.347 11.125 147.356 10.9997 147.374 10.8994C147.397 10.7946 147.436 10.7125 147.49 10.6533C147.545 10.5941 147.618 10.5508 147.709 10.5234C147.8 10.4961 147.919 10.4824 148.064 10.4824C148.206 10.4824 148.322 10.4961 148.413 10.5234C148.504 10.5508 148.577 10.5941 148.632 10.6533C148.691 10.7125 148.73 10.7946 148.748 10.8994C148.771 10.9997 148.782 11.125 148.782 11.2754ZM156.425 7.55662C156.425 8.23565 156.37 8.85545 156.261 9.41599C156.156 9.97654 155.978 10.4596 155.728 10.8652C155.481 11.2663 155.158 11.5784 154.757 11.8017C154.356 12.0205 153.861 12.1299 153.273 12.1299C152.717 12.1299 152.248 12.0319 151.865 11.8359C151.487 11.6354 151.182 11.3437 150.949 10.9609C150.717 10.5735 150.55 10.0996 150.45 9.53904C150.354 8.97394 150.307 8.3268 150.307 7.59763C150.307 6.92315 150.361 6.30564 150.471 5.74509C150.58 5.17999 150.758 4.69692 151.004 4.29588C151.25 3.89028 151.574 3.5781 151.975 3.35935C152.376 3.13604 152.868 3.02439 153.451 3.02439C154.012 3.02439 154.481 3.12465 154.859 3.32517C155.242 3.52114 155.55 3.8128 155.782 4.20017C156.015 4.58298 156.179 5.05694 156.274 5.62205C156.375 6.18259 156.425 6.82745 156.425 7.55662ZM155.222 7.63865C155.222 7.19659 155.206 6.80011 155.174 6.4492C155.142 6.09828 155.094 5.78839 155.03 5.51951C154.971 5.25063 154.891 5.02048 154.791 4.82908C154.695 4.63312 154.579 4.47361 154.442 4.35056C154.306 4.22296 154.148 4.13181 153.971 4.07713C153.798 4.01788 153.602 3.98826 153.383 3.98826C152.995 3.98826 152.681 4.0794 152.439 4.2617C152.198 4.44399 152.007 4.69464 151.865 5.01365C151.729 5.33266 151.635 5.70636 151.585 6.13474C151.535 6.56313 151.51 7.02341 151.51 7.5156C151.51 8.17641 151.544 8.73923 151.612 9.20408C151.681 9.66437 151.788 10.0403 151.934 10.332C152.084 10.6237 152.273 10.8356 152.501 10.9678C152.733 11.0999 153.014 11.166 153.342 11.166C153.597 11.166 153.82 11.125 154.012 11.0429C154.208 10.9609 154.374 10.8447 154.511 10.6943C154.652 10.5394 154.768 10.3548 154.859 10.1406C154.951 9.92641 155.023 9.68943 155.078 9.42966C155.133 9.1699 155.169 8.88963 155.188 8.58884C155.21 8.28351 155.222 7.96677 155.222 7.63865ZM163.521 7.55662C163.521 8.23565 163.466 8.85545 163.356 9.41599C163.252 9.97654 163.074 10.4596 162.823 10.8652C162.577 11.2663 162.254 11.5784 161.853 11.8017C161.451 12.0205 160.957 12.1299 160.369 12.1299C159.813 12.1299 159.344 12.0319 158.961 11.8359C158.583 11.6354 158.277 11.3437 158.045 10.9609C157.812 10.5735 157.646 10.0996 157.546 9.53904C157.45 8.97394 157.402 8.3268 157.402 7.59763C157.402 6.92315 157.457 6.30564 157.566 5.74509C157.676 5.17999 157.854 4.69692 158.1 4.29588C158.346 3.89028 158.669 3.5781 159.07 3.35935C159.471 3.13604 159.964 3.02439 160.547 3.02439C161.107 3.02439 161.577 3.12465 161.955 3.32517C162.338 3.52114 162.646 3.8128 162.878 4.20017C163.11 4.58298 163.274 5.05694 163.37 5.62205C163.47 6.18259 163.521 6.82745 163.521 7.55662ZM162.317 7.63865C162.317 7.19659 162.301 6.80011 162.27 6.4492C162.238 6.09828 162.19 5.78839 162.126 5.51951C162.067 5.25063 161.987 5.02048 161.887 4.82908C161.791 4.63312 161.675 4.47361 161.538 4.35056C161.401 4.22296 161.244 4.13181 161.066 4.07713C160.893 4.01788 160.697 3.98826 160.479 3.98826C160.091 3.98826 159.777 4.0794 159.535 4.2617C159.294 4.44399 159.102 4.69464 158.961 5.01365C158.824 5.33266 158.731 5.70636 158.681 6.13474C158.631 6.56313 158.605 7.02341 158.605 7.5156C158.605 8.17641 158.64 8.73923 158.708 9.20408C158.776 9.66437 158.883 10.0403 159.029 10.332C159.18 10.6237 159.369 10.8356 159.597 10.9678C159.829 11.0999 160.109 11.166 160.438 11.166C160.693 11.166 160.916 11.125 161.107 11.0429C161.303 10.9609 161.47 10.8447 161.606 10.6943C161.748 10.5394 161.864 10.3548 161.955 10.1406C162.046 9.92641 162.119 9.68943 162.174 9.42966C162.229 9.1699 162.265 8.88963 162.283 8.58884C162.306 8.28351 162.317 7.96677 162.317 7.63865ZM167.82 8.54783C167.82 8.72556 167.8 8.84861 167.759 8.91697C167.718 8.98533 167.659 9.01951 167.581 9.01951H164.724C164.642 9.01951 164.58 8.98533 164.539 8.91697C164.498 8.84405 164.478 8.72101 164.478 8.54783C164.478 8.37465 164.498 8.25388 164.539 8.18552C164.58 8.11716 164.642 8.08298 164.724 8.08298H167.581C167.618 8.08298 167.649 8.08982 167.677 8.10349C167.709 8.11716 167.734 8.14451 167.752 8.18552C167.775 8.22198 167.791 8.26983 167.8 8.32908C167.813 8.38832 167.82 8.46124 167.82 8.54783ZM174.615 11.4941C174.615 11.5761 174.608 11.6491 174.595 11.7129C174.586 11.7767 174.57 11.8314 174.547 11.8769C174.529 11.9179 174.501 11.9498 174.465 11.9726C174.433 11.9909 174.396 12 174.355 12H169.468C169.404 12 169.347 11.9931 169.297 11.9795C169.251 11.9612 169.21 11.9339 169.174 11.8974C169.142 11.861 169.117 11.8086 169.099 11.7402C169.085 11.6719 169.078 11.5875 169.078 11.4873C169.078 11.3961 169.08 11.3164 169.085 11.248C169.094 11.1797 169.11 11.1204 169.133 11.0703C169.156 11.0156 169.183 10.9632 169.215 10.9131C169.251 10.8584 169.297 10.8014 169.352 10.7422L171.067 8.92381C171.464 8.50453 171.781 8.12856 172.018 7.79588C172.259 7.46319 172.444 7.16013 172.571 6.8867C172.703 6.61326 172.79 6.36489 172.831 6.14158C172.872 5.91827 172.893 5.70864 172.893 5.51267C172.893 5.31671 172.861 5.13214 172.797 4.95896C172.733 4.78123 172.64 4.62628 172.517 4.49412C172.398 4.36196 172.248 4.25714 172.065 4.17966C171.883 4.10219 171.674 4.06345 171.437 4.06345C171.159 4.06345 170.908 4.10219 170.685 4.17966C170.466 4.25714 170.272 4.34145 170.104 4.43259C169.939 4.52374 169.8 4.60805 169.687 4.68552C169.577 4.763 169.495 4.80173 169.44 4.80173C169.409 4.80173 169.379 4.79262 169.352 4.77439C169.329 4.75616 169.308 4.72654 169.29 4.68552C169.276 4.64451 169.265 4.58982 169.256 4.52146C169.247 4.4531 169.242 4.37107 169.242 4.27537C169.242 4.20701 169.244 4.14776 169.249 4.09763C169.254 4.0475 169.26 4.00421 169.27 3.96775C169.283 3.93129 169.299 3.89711 169.317 3.86521C169.336 3.83331 169.372 3.79457 169.427 3.749C169.481 3.69887 169.575 3.63279 169.707 3.55076C169.844 3.46873 170.012 3.38897 170.213 3.3115C170.418 3.22947 170.641 3.16111 170.883 3.10642C171.129 3.05173 171.386 3.02439 171.655 3.02439C172.084 3.02439 172.457 3.08591 172.776 3.20896C173.1 3.32745 173.367 3.49151 173.576 3.70115C173.79 3.91078 173.95 4.1546 174.055 4.43259C174.16 4.71059 174.212 5.00681 174.212 5.32127C174.212 5.60382 174.187 5.88637 174.137 6.16892C174.087 6.44692 173.979 6.74998 173.815 7.0781C173.656 7.40167 173.424 7.76397 173.118 8.16502C172.813 8.5615 172.407 9.01951 171.901 9.53904L170.5 11.0019H174.349C174.385 11.0019 174.419 11.0133 174.451 11.0361C174.488 11.0543 174.517 11.084 174.54 11.125C174.567 11.166 174.586 11.2184 174.595 11.2822C174.608 11.3414 174.615 11.4121 174.615 11.4941ZM181.731 11.5351C181.731 11.6217 181.725 11.6946 181.711 11.7539C181.697 11.8131 181.679 11.861 181.656 11.8974C181.633 11.9339 181.606 11.9612 181.574 11.9795C181.547 11.9931 181.517 12 181.485 12H176.864C176.832 12 176.803 11.9931 176.775 11.9795C176.748 11.9612 176.721 11.9339 176.693 11.8974C176.671 11.861 176.652 11.8131 176.639 11.7539C176.625 11.6946 176.618 11.6217 176.618 11.5351C176.618 11.4531 176.625 11.3825 176.639 11.3232C176.652 11.264 176.668 11.2161 176.687 11.1797C176.709 11.1386 176.734 11.109 176.762 11.0908C176.794 11.068 176.828 11.0566 176.864 11.0566H178.71V4.33006L177.001 5.34861C176.914 5.39418 176.844 5.42153 176.789 5.43064C176.739 5.43976 176.698 5.43064 176.666 5.4033C176.634 5.3714 176.611 5.32127 176.598 5.25291C176.589 5.18455 176.584 5.09796 176.584 4.99314C176.584 4.91567 176.586 4.84959 176.591 4.7949C176.6 4.74021 176.611 4.69464 176.625 4.65818C176.639 4.62172 176.657 4.58982 176.68 4.56248C176.707 4.53513 176.741 4.50779 176.782 4.48045L178.819 3.17478C178.838 3.16111 178.86 3.14972 178.888 3.1406C178.915 3.13149 178.949 3.12237 178.99 3.11326C179.031 3.10414 179.079 3.09959 179.134 3.09959C179.188 3.09503 179.257 3.09275 179.339 3.09275C179.448 3.09275 179.539 3.09731 179.612 3.10642C179.685 3.11554 179.742 3.12921 179.783 3.14744C179.824 3.16111 179.852 3.18162 179.865 3.20896C179.879 3.23175 179.886 3.25681 179.886 3.28416V11.0566H181.485C181.522 11.0566 181.556 11.068 181.588 11.0908C181.62 11.109 181.645 11.1386 181.663 11.1797C181.686 11.2161 181.702 11.264 181.711 11.3232C181.725 11.3825 181.731 11.4531 181.731 11.5351ZM185.204 6.53123C185.204 6.67706 185.193 6.80011 185.17 6.90037C185.152 7.00063 185.113 7.08266 185.054 7.14646C184.999 7.20571 184.926 7.249 184.835 7.27634C184.744 7.29913 184.628 7.31052 184.486 7.31052C184.34 7.31052 184.222 7.29913 184.131 7.27634C184.04 7.249 183.967 7.20571 183.912 7.14646C183.857 7.08266 183.819 7.00063 183.796 6.90037C183.778 6.80011 183.769 6.67706 183.769 6.53123C183.769 6.37628 183.778 6.24868 183.796 6.14841C183.819 6.0436 183.857 5.96157 183.912 5.90232C183.967 5.83852 184.04 5.79522 184.131 5.77244C184.222 5.74509 184.34 5.73142 184.486 5.73142C184.628 5.73142 184.744 5.74509 184.835 5.77244C184.926 5.79522 184.999 5.83852 185.054 5.90232C185.113 5.96157 185.152 6.0436 185.17 6.14841C185.193 6.24868 185.204 6.37628 185.204 6.53123ZM185.204 11.2754C185.204 11.4258 185.193 11.5511 185.17 11.6513C185.152 11.7516 185.113 11.8336 185.054 11.8974C184.999 11.9567 184.926 11.9977 184.835 12.0205C184.744 12.0478 184.628 12.0615 184.486 12.0615C184.34 12.0615 184.222 12.0478 184.131 12.0205C184.04 11.9977 183.967 11.9567 183.912 11.8974C183.857 11.8336 183.819 11.7516 183.796 11.6513C183.778 11.5511 183.769 11.4258 183.769 11.2754C183.769 11.125 183.778 10.9997 183.796 10.8994C183.819 10.7946 183.857 10.7125 183.912 10.6533C183.967 10.5941 184.04 10.5508 184.131 10.5234C184.222 10.4961 184.34 10.4824 184.486 10.4824C184.628 10.4824 184.744 10.4961 184.835 10.5234C184.926 10.5508 184.999 10.5941 185.054 10.6533C185.113 10.7125 185.152 10.7946 185.17 10.8994C185.193 10.9997 185.204 11.125 185.204 11.2754ZM192.847 7.55662C192.847 8.23565 192.792 8.85545 192.683 9.41599C192.578 9.97654 192.4 10.4596 192.149 10.8652C191.903 11.2663 191.58 11.5784 191.179 11.8017C190.778 12.0205 190.283 12.1299 189.695 12.1299C189.139 12.1299 188.67 12.0319 188.287 11.8359C187.909 11.6354 187.604 11.3437 187.371 10.9609C187.139 10.5735 186.972 10.0996 186.872 9.53904C186.776 8.97394 186.729 8.3268 186.729 7.59763C186.729 6.92315 186.783 6.30564 186.893 5.74509C187.002 5.17999 187.18 4.69692 187.426 4.29588C187.672 3.89028 187.995 3.5781 188.396 3.35935C188.798 3.13604 189.29 3.02439 189.873 3.02439C190.434 3.02439 190.903 3.12465 191.281 3.32517C191.664 3.52114 191.972 3.8128 192.204 4.20017C192.437 4.58298 192.601 5.05694 192.696 5.62205C192.797 6.18259 192.847 6.82745 192.847 7.55662ZM191.644 7.63865C191.644 7.19659 191.628 6.80011 191.596 6.4492C191.564 6.09828 191.516 5.78839 191.452 5.51951C191.393 5.25063 191.313 5.02048 191.213 4.82908C191.117 4.63312 191.001 4.47361 190.864 4.35056C190.728 4.22296 190.57 4.13181 190.393 4.07713C190.219 4.01788 190.023 3.98826 189.805 3.98826C189.417 3.98826 189.103 4.0794 188.861 4.2617C188.62 4.44399 188.428 4.69464 188.287 5.01365C188.15 5.33266 188.057 5.70636 188.007 6.13474C187.957 6.56313 187.932 7.02341 187.932 7.5156C187.932 8.17641 187.966 8.73923 188.034 9.20408C188.103 9.66437 188.21 10.0403 188.355 10.332C188.506 10.6237 188.695 10.8356 188.923 10.9678C189.155 11.0999 189.436 11.166 189.764 11.166C190.019 11.166 190.242 11.125 190.434 11.0429C190.63 10.9609 190.796 10.8447 190.933 10.6943C191.074 10.5394 191.19 10.3548 191.281 10.1406C191.372 9.92641 191.445 9.68943 191.5 9.42966C191.555 9.1699 191.591 8.88963 191.609 8.58884C191.632 8.28351 191.644 7.96677 191.644 7.63865ZM199.942 7.55662C199.942 8.23565 199.888 8.85545 199.778 9.41599C199.674 9.97654 199.496 10.4596 199.245 10.8652C198.999 11.2663 198.675 11.5784 198.274 11.8017C197.873 12.0205 197.379 12.1299 196.791 12.1299C196.235 12.1299 195.766 12.0319 195.383 11.8359C195.005 11.6354 194.699 11.3437 194.467 10.9609C194.234 10.5735 194.068 10.0996 193.968 9.53904C193.872 8.97394 193.824 8.3268 193.824 7.59763C193.824 6.92315 193.879 6.30564 193.988 5.74509C194.098 5.17999 194.275 4.69692 194.521 4.29588C194.768 3.89028 195.091 3.5781 195.492 3.35935C195.893 3.13604 196.385 3.02439 196.969 3.02439C197.529 3.02439 197.999 3.12465 198.377 3.32517C198.76 3.52114 199.067 3.8128 199.3 4.20017C199.532 4.58298 199.696 5.05694 199.792 5.62205C199.892 6.18259 199.942 6.82745 199.942 7.55662ZM198.739 7.63865C198.739 7.19659 198.723 6.80011 198.691 6.4492C198.66 6.09828 198.612 5.78839 198.548 5.51951C198.489 5.25063 198.409 5.02048 198.309 4.82908C198.213 4.63312 198.097 4.47361 197.96 4.35056C197.823 4.22296 197.666 4.13181 197.488 4.07713C197.315 4.01788 197.119 3.98826 196.9 3.98826C196.513 3.98826 196.199 4.0794 195.957 4.2617C195.715 4.44399 195.524 4.69464 195.383 5.01365C195.246 5.33266 195.153 5.70636 195.103 6.13474C195.052 6.56313 195.027 7.02341 195.027 7.5156C195.027 8.17641 195.062 8.73923 195.13 9.20408C195.198 9.66437 195.305 10.0403 195.451 10.332C195.602 10.6237 195.791 10.8356 196.019 10.9678C196.251 11.0999 196.531 11.166 196.859 11.166C197.115 11.166 197.338 11.125 197.529 11.0429C197.725 10.9609 197.892 10.8447 198.028 10.6943C198.17 10.5394 198.286 10.3548 198.377 10.1406C198.468 9.92641 198.541 9.68943 198.596 9.42966C198.65 9.1699 198.687 8.88963 198.705 8.58884C198.728 8.28351 198.739 7.96677 198.739 7.63865ZM104.376 28.8291C104.376 28.8655 104.367 28.8974 104.349 28.9248C104.33 28.9476 104.299 28.9681 104.253 28.9863C104.207 29.0045 104.146 29.0182 104.068 29.0273C103.995 29.0364 103.902 29.041 103.788 29.041C103.674 29.041 103.578 29.0364 103.501 29.0273C103.428 29.0182 103.369 29.0045 103.323 28.9863C103.278 28.9681 103.246 28.9476 103.228 28.9248C103.209 28.8974 103.2 28.8655 103.2 28.8291V21.166H100.712C100.589 22.2187 100.466 23.1461 100.343 23.9482C100.22 24.7503 100.09 25.4476 99.9531 26.04C99.8164 26.6279 99.666 27.1178 99.502 27.5097C99.3379 27.9017 99.1488 28.2184 98.9346 28.4599C98.7249 28.6969 98.4857 28.8655 98.2168 28.9658C97.9525 29.0615 97.6494 29.1094 97.3076 29.1094C97.262 29.1094 97.221 29.1002 97.1846 29.082C97.1481 29.0638 97.1162 29.0342 97.0889 28.9931C97.0661 28.9521 97.0479 28.8997 97.0342 28.8359C97.0251 28.7721 97.0205 28.6946 97.0205 28.6035C97.0205 28.4896 97.0251 28.3961 97.0342 28.3232C97.0479 28.2503 97.0638 28.1911 97.082 28.1455C97.1003 28.0999 97.123 28.068 97.1504 28.0498C97.1823 28.0316 97.2165 28.0224 97.2529 28.0224C97.4215 28.0224 97.5788 27.9883 97.7246 27.9199C97.875 27.8515 98.0186 27.7239 98.1553 27.5371C98.292 27.3457 98.4219 27.0814 98.5449 26.7441C98.6725 26.4023 98.7956 25.9603 98.9141 25.4179C99.0326 24.8711 99.1488 24.2103 99.2627 23.4355C99.3766 22.6608 99.4883 21.7425 99.5977 20.6806C99.6204 20.4892 99.666 20.3548 99.7344 20.2773C99.8027 20.1953 99.903 20.1543 100.035 20.1543H103.966C104.093 20.1543 104.194 20.1953 104.267 20.2773C104.34 20.3548 104.376 20.4733 104.376 20.6328V28.8291ZM111.854 25.4863C111.854 25.664 111.809 25.7916 111.718 25.8691C111.631 25.942 111.531 25.9785 111.417 25.9785H107.384C107.384 26.3203 107.418 26.6279 107.486 26.9013C107.555 27.1748 107.669 27.4095 107.828 27.6054C107.988 27.8014 108.195 27.9518 108.45 28.0566C108.705 28.1614 109.018 28.2138 109.387 28.2138C109.678 28.2138 109.938 28.1911 110.166 28.1455C110.394 28.0954 110.59 28.0407 110.754 27.9814C110.923 27.9222 111.059 27.8698 111.164 27.8242C111.273 27.7741 111.355 27.749 111.41 27.749C111.442 27.749 111.469 27.7581 111.492 27.7763C111.52 27.79 111.54 27.8128 111.554 27.8447C111.567 27.8766 111.576 27.9222 111.581 27.9814C111.59 28.0361 111.595 28.1045 111.595 28.1865C111.595 28.2457 111.592 28.2982 111.588 28.3437C111.583 28.3847 111.576 28.4235 111.567 28.4599C111.563 28.4918 111.551 28.5215 111.533 28.5488C111.52 28.5761 111.499 28.6035 111.472 28.6308C111.449 28.6536 111.376 28.6946 111.253 28.7539C111.13 28.8086 110.97 28.8633 110.774 28.9179C110.578 28.9726 110.351 29.0205 110.091 29.0615C109.836 29.1071 109.562 29.1299 109.271 29.1299C108.765 29.1299 108.32 29.0592 107.938 28.9179C107.559 28.7767 107.24 28.567 106.98 28.289C106.721 28.011 106.525 27.6624 106.393 27.2431C106.26 26.8239 106.194 26.3362 106.194 25.7803C106.194 25.2516 106.263 24.7776 106.399 24.3584C106.536 23.9345 106.732 23.5768 106.987 23.2851C107.247 22.9889 107.559 22.7633 107.924 22.6084C108.288 22.4489 108.696 22.3691 109.147 22.3691C109.631 22.3691 110.041 22.4466 110.378 22.6015C110.72 22.7565 111 22.9661 111.219 23.2304C111.438 23.4902 111.597 23.7978 111.697 24.1533C111.802 24.5042 111.854 24.8802 111.854 25.2812V25.4863ZM110.72 25.1513C110.733 24.5589 110.601 24.0941 110.323 23.7568C110.05 23.4196 109.642 23.251 109.1 23.251C108.822 23.251 108.578 23.3034 108.368 23.4082C108.159 23.513 107.983 23.652 107.842 23.8252C107.701 23.9983 107.591 24.2011 107.514 24.4336C107.436 24.6614 107.393 24.9007 107.384 25.1513H110.72ZM118.971 28.8291C118.971 28.8655 118.962 28.8974 118.943 28.9248C118.925 28.9476 118.896 28.9681 118.854 28.9863C118.813 29.0045 118.757 29.0182 118.684 29.0273C118.611 29.0364 118.52 29.041 118.41 29.041C118.296 29.041 118.203 29.0364 118.13 29.0273C118.057 29.0182 118 29.0045 117.959 28.9863C117.918 28.9681 117.888 28.9476 117.87 28.9248C117.852 28.8974 117.843 28.8655 117.843 28.8291V26.1289H114.705V28.8291C114.705 28.8655 114.696 28.8974 114.678 28.9248C114.66 28.9476 114.63 28.9681 114.589 28.9863C114.548 29.0045 114.491 29.0182 114.418 29.0273C114.345 29.0364 114.252 29.041 114.138 29.041C114.028 29.041 113.937 29.0364 113.864 29.0273C113.791 29.0182 113.732 29.0045 113.687 28.9863C113.646 28.9681 113.616 28.9476 113.598 28.9248C113.584 28.8974 113.577 28.8655 113.577 28.8291V22.6767C113.577 22.6403 113.584 22.6107 113.598 22.5879C113.616 22.5605 113.646 22.5377 113.687 22.5195C113.732 22.4967 113.791 22.4831 113.864 22.4785C113.937 22.4694 114.028 22.4648 114.138 22.4648C114.252 22.4648 114.345 22.4694 114.418 22.4785C114.491 22.4831 114.548 22.4967 114.589 22.5195C114.63 22.5377 114.66 22.5605 114.678 22.5879C114.696 22.6107 114.705 22.6403 114.705 22.6767V25.1787H117.843V22.6767C117.843 22.6403 117.852 22.6107 117.87 22.5879C117.888 22.5605 117.918 22.5377 117.959 22.5195C118 22.4967 118.057 22.4831 118.13 22.4785C118.203 22.4694 118.296 22.4648 118.41 22.4648C118.52 22.4648 118.611 22.4694 118.684 22.4785C118.757 22.4831 118.813 22.4967 118.854 22.5195C118.896 22.5377 118.925 22.5605 118.943 22.5879C118.962 22.6107 118.971 22.6403 118.971 22.6767V28.8291ZM125.376 23.0117C125.376 23.1028 125.371 23.1803 125.362 23.2441C125.353 23.3079 125.337 23.3603 125.314 23.4013C125.296 23.4424 125.273 23.4743 125.246 23.497C125.219 23.5153 125.185 23.5244 125.144 23.5244H123.298V28.8291C123.298 28.8655 123.289 28.8974 123.271 28.9248C123.252 28.9476 123.223 28.9681 123.182 28.9863C123.141 29.0045 123.084 29.0182 123.011 29.0273C122.938 29.0364 122.844 29.041 122.73 29.041C122.621 29.041 122.53 29.0364 122.457 29.0273C122.384 29.0182 122.325 29.0045 122.279 28.9863C122.238 28.9681 122.209 28.9476 122.19 28.9248C122.177 28.8974 122.17 28.8655 122.17 28.8291V23.5244H120.324C120.288 23.5244 120.254 23.5153 120.222 23.497C120.194 23.4743 120.172 23.4424 120.153 23.4013C120.135 23.3603 120.119 23.3079 120.105 23.2441C120.096 23.1758 120.092 23.096 120.092 23.0049C120.092 22.9228 120.096 22.8499 120.105 22.7861C120.119 22.7223 120.135 22.6699 120.153 22.6289C120.176 22.5833 120.201 22.5514 120.229 22.5332C120.256 22.5104 120.288 22.499 120.324 22.499H125.144C125.18 22.499 125.212 22.5104 125.239 22.5332C125.271 22.5514 125.296 22.5833 125.314 22.6289C125.333 22.6699 125.346 22.7246 125.355 22.7929C125.369 22.8567 125.376 22.9297 125.376 23.0117ZM131.132 28.8359C131.132 28.8906 131.114 28.9316 131.077 28.959C131.041 28.9863 130.991 29.0068 130.927 29.0205C130.863 29.0342 130.77 29.041 130.646 29.041C130.528 29.041 130.432 29.0342 130.359 29.0205C130.291 29.0068 130.241 28.9863 130.209 28.959C130.177 28.9316 130.161 28.8906 130.161 28.8359V28.2207C129.892 28.5078 129.591 28.7311 129.259 28.8906C128.931 29.0501 128.582 29.1299 128.213 29.1299C127.889 29.1299 127.595 29.0866 127.331 29C127.071 28.9179 126.848 28.7972 126.661 28.6377C126.479 28.4782 126.335 28.2822 126.23 28.0498C126.13 27.8174 126.08 27.553 126.08 27.2568C126.08 26.9105 126.151 26.6097 126.292 26.3545C126.433 26.0993 126.636 25.8873 126.9 25.7187C127.165 25.5501 127.488 25.4248 127.871 25.3428C128.254 25.2562 128.685 25.2129 129.163 25.2129H130.011V24.7344C130.011 24.4974 129.986 24.2877 129.936 24.1054C129.885 23.9232 129.803 23.7728 129.689 23.6543C129.58 23.5312 129.437 23.4401 129.259 23.3808C129.081 23.317 128.862 23.2851 128.603 23.2851C128.325 23.2851 128.074 23.3193 127.851 23.3877C127.632 23.4515 127.438 23.5244 127.27 23.6064C127.105 23.6839 126.966 23.7568 126.853 23.8252C126.743 23.889 126.661 23.9209 126.606 23.9209C126.57 23.9209 126.538 23.9118 126.511 23.8935C126.483 23.8753 126.458 23.848 126.436 23.8115C126.417 23.775 126.404 23.7295 126.395 23.6748C126.385 23.6155 126.381 23.5517 126.381 23.4834C126.381 23.3694 126.388 23.2806 126.401 23.2168C126.42 23.1484 126.458 23.0846 126.518 23.0254C126.581 22.9661 126.688 22.8978 126.839 22.8203C126.989 22.7383 127.162 22.6653 127.358 22.6015C127.554 22.5332 127.769 22.4785 128.001 22.4375C128.233 22.3919 128.468 22.3691 128.705 22.3691C129.147 22.3691 129.523 22.4192 129.833 22.5195C130.143 22.6198 130.394 22.7679 130.585 22.9638C130.776 23.1553 130.915 23.3945 131.002 23.6816C131.089 23.9687 131.132 24.3037 131.132 24.6865V28.8359ZM130.011 26.0263H129.047C128.737 26.0263 128.468 26.0537 128.24 26.1084C128.012 26.1585 127.823 26.236 127.673 26.3408C127.522 26.4411 127.411 26.5641 127.338 26.7099C127.27 26.8512 127.235 27.0153 127.235 27.2021C127.235 27.5211 127.336 27.7763 127.536 27.9678C127.741 28.1546 128.026 28.248 128.391 28.248C128.687 28.248 128.96 28.1728 129.211 28.0224C129.466 27.872 129.733 27.6419 130.011 27.332V26.0263ZM141.946 24.5566C141.946 25.2357 141.892 25.8554 141.782 26.416C141.677 26.9765 141.5 27.4596 141.249 27.8652C141.003 28.2663 140.679 28.5784 140.278 28.8017C139.877 29.0205 139.383 29.1299 138.795 29.1299C138.239 29.1299 137.77 29.0319 137.387 28.8359C137.008 28.6354 136.703 28.3437 136.471 27.9609C136.238 27.5735 136.072 27.0996 135.972 26.539C135.876 25.9739 135.828 25.3268 135.828 24.5976C135.828 23.9232 135.883 23.3056 135.992 22.7451C136.102 22.18 136.279 21.6969 136.525 21.2959C136.771 20.8903 137.095 20.5781 137.496 20.3594C137.897 20.136 138.389 20.0244 138.973 20.0244C139.533 20.0244 140.003 20.1247 140.381 20.3252C140.764 20.5211 141.071 20.8128 141.304 21.2002C141.536 21.583 141.7 22.0569 141.796 22.622C141.896 23.1826 141.946 23.8275 141.946 24.5566ZM140.743 24.6386C140.743 24.1966 140.727 23.8001 140.695 23.4492C140.663 23.0983 140.616 22.7884 140.552 22.5195C140.493 22.2506 140.413 22.0205 140.312 21.8291C140.217 21.6331 140.101 21.4736 139.964 21.3506C139.827 21.223 139.67 21.1318 139.492 21.0771C139.319 21.0179 139.123 20.9883 138.904 20.9883C138.517 20.9883 138.202 21.0794 137.961 21.2617C137.719 21.444 137.528 21.6946 137.387 22.0136C137.25 22.3327 137.157 22.7064 137.106 23.1347C137.056 23.5631 137.031 24.0234 137.031 24.5156C137.031 25.1764 137.065 25.7392 137.134 26.2041C137.202 26.6644 137.309 27.0403 137.455 27.332C137.605 27.6237 137.795 27.8356 138.022 27.9678C138.255 28.0999 138.535 28.166 138.863 28.166C139.118 28.166 139.342 28.125 139.533 28.0429C139.729 27.9609 139.896 27.8447 140.032 27.6943C140.174 27.5394 140.29 27.3548 140.381 27.1406C140.472 26.9264 140.545 26.6894 140.6 26.4297C140.654 26.1699 140.691 25.8896 140.709 25.5888C140.732 25.2835 140.743 24.9668 140.743 24.6386ZM148.953 26.7304C148.953 27.1133 148.885 27.4551 148.748 27.7558C148.611 28.0521 148.413 28.3027 148.153 28.5078C147.898 28.7129 147.581 28.8678 147.203 28.9726C146.825 29.0775 146.392 29.1299 145.904 29.1299C145.449 29.1299 145.041 29.082 144.681 28.9863C144.321 28.8906 144.015 28.7493 143.765 28.5625C143.514 28.3756 143.323 28.1455 143.19 27.872C143.058 27.5986 142.992 27.2864 142.992 26.9355C142.992 26.6575 143.038 26.4023 143.129 26.1699C143.22 25.9375 143.35 25.7233 143.519 25.5273C143.692 25.3314 143.904 25.1491 144.154 24.9804C144.405 24.8073 144.688 24.6432 145.002 24.4883C144.729 24.347 144.487 24.1989 144.277 24.0439C144.068 23.8844 143.89 23.7135 143.744 23.5312C143.598 23.3444 143.487 23.1461 143.409 22.9365C143.336 22.7269 143.3 22.499 143.3 22.2529C143.3 21.943 143.354 21.6536 143.464 21.3847C143.578 21.1113 143.746 20.8743 143.97 20.6738C144.198 20.4733 144.485 20.3161 144.831 20.2021C145.182 20.0836 145.59 20.0244 146.055 20.0244C146.501 20.0244 146.886 20.0791 147.21 20.1885C147.538 20.2933 147.807 20.4391 148.017 20.626C148.231 20.8082 148.388 21.0247 148.488 21.2754C148.589 21.526 148.639 21.7949 148.639 22.082C148.639 22.3144 148.6 22.5377 148.522 22.7519C148.45 22.9661 148.34 23.1689 148.194 23.3603C148.049 23.5517 147.868 23.7317 147.654 23.9004C147.445 24.0644 147.203 24.2194 146.93 24.3652C147.253 24.5247 147.54 24.6888 147.791 24.8574C148.046 25.026 148.258 25.2083 148.427 25.4043C148.6 25.5957 148.73 25.8008 148.816 26.0195C148.908 26.2337 148.953 26.4707 148.953 26.7304ZM147.477 22.1914C147.477 22 147.442 21.8268 147.374 21.6719C147.31 21.5169 147.215 21.3847 147.087 21.2754C146.959 21.166 146.8 21.084 146.608 21.0293C146.422 20.97 146.207 20.9404 145.966 20.9404C145.474 20.9404 145.1 21.0521 144.845 21.2754C144.594 21.4987 144.469 21.804 144.469 22.1914C144.469 22.3691 144.498 22.5355 144.558 22.6904C144.621 22.8408 144.717 22.9844 144.845 23.1211C144.977 23.2578 145.141 23.3922 145.337 23.5244C145.537 23.652 145.774 23.7864 146.048 23.9277C146.508 23.6907 146.861 23.4287 147.107 23.1416C147.354 22.8545 147.477 22.5377 147.477 22.1914ZM147.764 26.8535C147.764 26.6439 147.725 26.4547 147.647 26.2861C147.57 26.1129 147.451 25.9534 147.292 25.8076C147.137 25.6572 146.941 25.5136 146.704 25.3769C146.472 25.2357 146.201 25.0898 145.891 24.9394C145.604 25.0807 145.351 25.222 145.132 25.3633C144.918 25.5045 144.74 25.6504 144.599 25.8008C144.462 25.9511 144.357 26.1107 144.284 26.2793C144.216 26.4433 144.182 26.6256 144.182 26.8261C144.182 27.2682 144.332 27.61 144.633 27.8515C144.938 28.0931 145.392 28.2138 145.993 28.2138C146.576 28.2138 147.016 28.0931 147.312 27.8515C147.613 27.6054 147.764 27.2728 147.764 26.8535ZM152.241 23.5312C152.241 23.6771 152.23 23.8001 152.207 23.9004C152.189 24.0006 152.15 24.0827 152.091 24.1465C152.036 24.2057 151.963 24.249 151.872 24.2763C151.781 24.2991 151.665 24.3105 151.523 24.3105C151.378 24.3105 151.259 24.2991 151.168 24.2763C151.077 24.249 151.004 24.2057 150.949 24.1465C150.895 24.0827 150.856 24.0006 150.833 23.9004C150.815 23.8001 150.806 23.6771 150.806 23.5312C150.806 23.3763 150.815 23.2487 150.833 23.1484C150.856 23.0436 150.895 22.9616 150.949 22.9023C151.004 22.8385 151.077 22.7952 151.168 22.7724C151.259 22.7451 151.378 22.7314 151.523 22.7314C151.665 22.7314 151.781 22.7451 151.872 22.7724C151.963 22.7952 152.036 22.8385 152.091 22.9023C152.15 22.9616 152.189 23.0436 152.207 23.1484C152.23 23.2487 152.241 23.3763 152.241 23.5312ZM152.241 28.2754C152.241 28.4258 152.23 28.5511 152.207 28.6513C152.189 28.7516 152.15 28.8336 152.091 28.8974C152.036 28.9567 151.963 28.9977 151.872 29.0205C151.781 29.0478 151.665 29.0615 151.523 29.0615C151.378 29.0615 151.259 29.0478 151.168 29.0205C151.077 28.9977 151.004 28.9567 150.949 28.8974C150.895 28.8336 150.856 28.7516 150.833 28.6513C150.815 28.5511 150.806 28.4258 150.806 28.2754C150.806 28.125 150.815 27.9997 150.833 27.8994C150.856 27.7946 150.895 27.7125 150.949 27.6533C151.004 27.5941 151.077 27.5508 151.168 27.5234C151.259 27.4961 151.378 27.4824 151.523 27.4824C151.665 27.4824 151.781 27.4961 151.872 27.5234C151.963 27.5508 152.036 27.5941 152.091 27.6533C152.15 27.7125 152.189 27.7946 152.207 27.8994C152.23 27.9997 152.241 28.125 152.241 28.2754ZM159.884 24.5566C159.884 25.2357 159.829 25.8554 159.72 26.416C159.615 26.9765 159.437 27.4596 159.187 27.8652C158.94 28.2663 158.617 28.5784 158.216 28.8017C157.815 29.0205 157.32 29.1299 156.732 29.1299C156.176 29.1299 155.707 29.0319 155.324 28.8359C154.946 28.6354 154.641 28.3437 154.408 27.9609C154.176 27.5735 154.009 27.0996 153.909 26.539C153.813 25.9739 153.766 25.3268 153.766 24.5976C153.766 23.9232 153.82 23.3056 153.93 22.7451C154.039 22.18 154.217 21.6969 154.463 21.2959C154.709 20.8903 155.033 20.5781 155.434 20.3594C155.835 20.136 156.327 20.0244 156.91 20.0244C157.471 20.0244 157.94 20.1247 158.318 20.3252C158.701 20.5211 159.009 20.8128 159.241 21.2002C159.474 21.583 159.638 22.0569 159.733 22.622C159.834 23.1826 159.884 23.8275 159.884 24.5566ZM158.681 24.6386C158.681 24.1966 158.665 23.8001 158.633 23.4492C158.601 23.0983 158.553 22.7884 158.489 22.5195C158.43 22.2506 158.35 22.0205 158.25 21.8291C158.154 21.6331 158.038 21.4736 157.901 21.3506C157.765 21.223 157.607 21.1318 157.43 21.0771C157.257 21.0179 157.061 20.9883 156.842 20.9883C156.454 20.9883 156.14 21.0794 155.898 21.2617C155.657 21.444 155.465 21.6946 155.324 22.0136C155.188 22.3327 155.094 22.7064 155.044 23.1347C154.994 23.5631 154.969 24.0234 154.969 24.5156C154.969 25.1764 155.003 25.7392 155.071 26.2041C155.14 26.6644 155.247 27.0403 155.393 27.332C155.543 27.6237 155.732 27.8356 155.96 27.9678C156.192 28.0999 156.473 28.166 156.801 28.166C157.056 28.166 157.279 28.125 157.471 28.0429C157.667 27.9609 157.833 27.8447 157.97 27.6943C158.111 27.5394 158.227 27.3548 158.318 27.1406C158.41 26.9264 158.482 26.6894 158.537 26.4297C158.592 26.1699 158.628 25.8896 158.646 25.5888C158.669 25.2835 158.681 24.9668 158.681 24.6386ZM166.979 24.5566C166.979 25.2357 166.925 25.8554 166.815 26.416C166.711 26.9765 166.533 27.4596 166.282 27.8652C166.036 28.2663 165.713 28.5784 165.312 28.8017C164.91 29.0205 164.416 29.1299 163.828 29.1299C163.272 29.1299 162.803 29.0319 162.42 28.8359C162.042 28.6354 161.736 28.3437 161.504 27.9609C161.271 27.5735 161.105 27.0996 161.005 26.539C160.909 25.9739 160.861 25.3268 160.861 24.5976C160.861 23.9232 160.916 23.3056 161.025 22.7451C161.135 22.18 161.312 21.6969 161.559 21.2959C161.805 20.8903 162.128 20.5781 162.529 20.3594C162.93 20.136 163.423 20.0244 164.006 20.0244C164.566 20.0244 165.036 20.1247 165.414 20.3252C165.797 20.5211 166.104 20.8128 166.337 21.2002C166.569 21.583 166.733 22.0569 166.829 22.622C166.929 23.1826 166.979 23.8275 166.979 24.5566ZM165.776 24.6386C165.776 24.1966 165.76 23.8001 165.729 23.4492C165.697 23.0983 165.649 22.7884 165.585 22.5195C165.526 22.2506 165.446 22.0205 165.346 21.8291C165.25 21.6331 165.134 21.4736 164.997 21.3506C164.86 21.223 164.703 21.1318 164.525 21.0771C164.352 21.0179 164.156 20.9883 163.938 20.9883C163.55 20.9883 163.236 21.0794 162.994 21.2617C162.753 21.444 162.561 21.6946 162.42 22.0136C162.283 22.3327 162.19 22.7064 162.14 23.1347C162.09 23.5631 162.064 24.0234 162.064 24.5156C162.064 25.1764 162.099 25.7392 162.167 26.2041C162.235 26.6644 162.342 27.0403 162.488 27.332C162.639 27.6237 162.828 27.8356 163.056 27.9678C163.288 28.0999 163.568 28.166 163.896 28.166C164.152 28.166 164.375 28.125 164.566 28.0429C164.762 27.9609 164.929 27.8447 165.065 27.6943C165.207 27.5394 165.323 27.3548 165.414 27.1406C165.505 26.9264 165.578 26.6894 165.633 26.4297C165.688 26.1699 165.724 25.8896 165.742 25.5888C165.765 25.2835 165.776 24.9668 165.776 24.6386ZM171.279 25.5478C171.279 25.7256 171.259 25.8486 171.218 25.917C171.177 25.9853 171.118 26.0195 171.04 26.0195H168.183C168.101 26.0195 168.039 25.9853 167.998 25.917C167.957 25.8441 167.937 25.721 167.937 25.5478C167.937 25.3747 167.957 25.2539 167.998 25.1855C168.039 25.1172 168.101 25.083 168.183 25.083H171.04C171.076 25.083 171.108 25.0898 171.136 25.1035C171.168 25.1172 171.193 25.1445 171.211 25.1855C171.234 25.222 171.25 25.2698 171.259 25.3291C171.272 25.3883 171.279 25.4612 171.279 25.5478ZM178.074 28.4941C178.074 28.5761 178.067 28.6491 178.054 28.7129C178.045 28.7767 178.029 28.8314 178.006 28.8769C177.988 28.9179 177.96 28.9498 177.924 28.9726C177.892 28.9909 177.855 29 177.814 29H172.927C172.863 29 172.806 28.9931 172.756 28.9795C172.71 28.9612 172.669 28.9339 172.633 28.8974C172.601 28.861 172.576 28.8086 172.558 28.7402C172.544 28.6719 172.537 28.5875 172.537 28.4873C172.537 28.3961 172.539 28.3164 172.544 28.248C172.553 28.1797 172.569 28.1204 172.592 28.0703C172.615 28.0156 172.642 27.9632 172.674 27.9131C172.71 27.8584 172.756 27.8014 172.811 27.7422L174.526 25.9238C174.923 25.5045 175.24 25.1286 175.477 24.7959C175.718 24.4632 175.903 24.1601 176.03 23.8867C176.162 23.6133 176.249 23.3649 176.29 23.1416C176.331 22.9183 176.352 22.7086 176.352 22.5127C176.352 22.3167 176.32 22.1321 176.256 21.959C176.192 21.7812 176.099 21.6263 175.976 21.4941C175.857 21.362 175.707 21.2571 175.524 21.1797C175.342 21.1022 175.132 21.0635 174.896 21.0635C174.618 21.0635 174.367 21.1022 174.144 21.1797C173.925 21.2571 173.731 21.3414 173.562 21.4326C173.398 21.5237 173.259 21.6081 173.146 21.6855C173.036 21.763 172.954 21.8017 172.899 21.8017C172.868 21.8017 172.838 21.7926 172.811 21.7744C172.788 21.7562 172.767 21.7265 172.749 21.6855C172.735 21.6445 172.724 21.5898 172.715 21.5215C172.706 21.4531 172.701 21.3711 172.701 21.2754C172.701 21.207 172.703 21.1478 172.708 21.0976C172.713 21.0475 172.719 21.0042 172.729 20.9678C172.742 20.9313 172.758 20.8971 172.776 20.8652C172.795 20.8333 172.831 20.7946 172.886 20.749C172.94 20.6989 173.034 20.6328 173.166 20.5508C173.303 20.4687 173.471 20.389 173.672 20.3115C173.877 20.2295 174.1 20.1611 174.342 20.1064C174.588 20.0517 174.845 20.0244 175.114 20.0244C175.543 20.0244 175.916 20.0859 176.235 20.209C176.559 20.3275 176.826 20.4915 177.035 20.7011C177.249 20.9108 177.409 21.1546 177.514 21.4326C177.618 21.7106 177.671 22.0068 177.671 22.3213C177.671 22.6038 177.646 22.8864 177.596 23.1689C177.546 23.4469 177.438 23.75 177.274 24.0781C177.115 24.4017 176.882 24.764 176.577 25.165C176.272 25.5615 175.866 26.0195 175.36 26.539L173.959 28.0019H177.808C177.844 28.0019 177.878 28.0133 177.91 28.0361C177.947 28.0543 177.976 28.084 177.999 28.125C178.026 28.166 178.045 28.2184 178.054 28.2822C178.067 28.3414 178.074 28.4121 178.074 28.4941ZM185.17 28.4941C185.17 28.5761 185.163 28.6491 185.149 28.7129C185.14 28.7767 185.124 28.8314 185.102 28.8769C185.083 28.9179 185.056 28.9498 185.02 28.9726C184.988 28.9909 184.951 29 184.91 29H180.022C179.959 29 179.902 28.9931 179.852 28.9795C179.806 28.9612 179.765 28.9339 179.729 28.8974C179.697 28.861 179.672 28.8086 179.653 28.7402C179.64 28.6719 179.633 28.5875 179.633 28.4873C179.633 28.3961 179.635 28.3164 179.64 28.248C179.649 28.1797 179.665 28.1204 179.688 28.0703C179.71 28.0156 179.738 27.9632 179.77 27.9131C179.806 27.8584 179.852 27.8014 179.906 27.7422L181.622 25.9238C182.019 25.5045 182.335 25.1286 182.572 24.7959C182.814 24.4632 182.998 24.1601 183.126 23.8867C183.258 23.6133 183.345 23.3649 183.386 23.1416C183.427 22.9183 183.447 22.7086 183.447 22.5127C183.447 22.3167 183.415 22.1321 183.352 21.959C183.288 21.7812 183.194 21.6263 183.071 21.4941C182.953 21.362 182.802 21.2571 182.62 21.1797C182.438 21.1022 182.228 21.0635 181.991 21.0635C181.713 21.0635 181.463 21.1022 181.239 21.1797C181.021 21.2571 180.827 21.3414 180.658 21.4326C180.494 21.5237 180.355 21.6081 180.241 21.6855C180.132 21.763 180.05 21.8017 179.995 21.8017C179.963 21.8017 179.934 21.7926 179.906 21.7744C179.883 21.7562 179.863 21.7265 179.845 21.6855C179.831 21.6445 179.82 21.5898 179.811 21.5215C179.801 21.4531 179.797 21.3711 179.797 21.2754C179.797 21.207 179.799 21.1478 179.804 21.0976C179.808 21.0475 179.815 21.0042 179.824 20.9678C179.838 20.9313 179.854 20.8971 179.872 20.8652C179.89 20.8333 179.927 20.7946 179.981 20.749C180.036 20.6989 180.13 20.6328 180.262 20.5508C180.398 20.4687 180.567 20.389 180.768 20.3115C180.973 20.2295 181.196 20.1611 181.438 20.1064C181.684 20.0517 181.941 20.0244 182.21 20.0244C182.638 20.0244 183.012 20.0859 183.331 20.209C183.655 20.3275 183.921 20.4915 184.131 20.7011C184.345 20.9108 184.505 21.1546 184.609 21.4326C184.714 21.7106 184.767 22.0068 184.767 22.3213C184.767 22.6038 184.742 22.8864 184.691 23.1689C184.641 23.4469 184.534 23.75 184.37 24.0781C184.211 24.4017 183.978 24.764 183.673 25.165C183.368 25.5615 182.962 26.0195 182.456 26.539L181.055 28.0019H184.903C184.94 28.0019 184.974 28.0133 185.006 28.0361C185.042 28.0543 185.072 28.084 185.095 28.125C185.122 28.166 185.14 28.2184 185.149 28.2822C185.163 28.3414 185.17 28.4121 185.17 28.4941ZM188.663 23.5312C188.663 23.6771 188.652 23.8001 188.629 23.9004C188.611 24.0006 188.572 24.0827 188.513 24.1465C188.458 24.2057 188.385 24.249 188.294 24.2763C188.203 24.2991 188.087 24.3105 187.945 24.3105C187.799 24.3105 187.681 24.2991 187.59 24.2763C187.499 24.249 187.426 24.2057 187.371 24.1465C187.316 24.0827 187.278 24.0006 187.255 23.9004C187.237 23.8001 187.228 23.6771 187.228 23.5312C187.228 23.3763 187.237 23.2487 187.255 23.1484C187.278 23.0436 187.316 22.9616 187.371 22.9023C187.426 22.8385 187.499 22.7952 187.59 22.7724C187.681 22.7451 187.799 22.7314 187.945 22.7314C188.087 22.7314 188.203 22.7451 188.294 22.7724C188.385 22.7952 188.458 22.8385 188.513 22.9023C188.572 22.9616 188.611 23.0436 188.629 23.1484C188.652 23.2487 188.663 23.3763 188.663 23.5312ZM188.663 28.2754C188.663 28.4258 188.652 28.5511 188.629 28.6513C188.611 28.7516 188.572 28.8336 188.513 28.8974C188.458 28.9567 188.385 28.9977 188.294 29.0205C188.203 29.0478 188.087 29.0615 187.945 29.0615C187.799 29.0615 187.681 29.0478 187.59 29.0205C187.499 28.9977 187.426 28.9567 187.371 28.8974C187.316 28.8336 187.278 28.7516 187.255 28.6513C187.237 28.5511 187.228 28.4258 187.228 28.2754C187.228 28.125 187.237 27.9997 187.255 27.8994C187.278 27.7946 187.316 27.7125 187.371 27.6533C187.426 27.5941 187.499 27.5508 187.59 27.5234C187.681 27.4961 187.799 27.4824 187.945 27.4824C188.087 27.4824 188.203 27.4961 188.294 27.5234C188.385 27.5508 188.458 27.5941 188.513 27.6533C188.572 27.7125 188.611 27.7946 188.629 27.8994C188.652 27.9997 188.663 28.125 188.663 28.2754ZM196.306 24.5566C196.306 25.2357 196.251 25.8554 196.142 26.416C196.037 26.9765 195.859 27.4596 195.608 27.8652C195.362 28.2663 195.039 28.5784 194.638 28.8017C194.237 29.0205 193.742 29.1299 193.154 29.1299C192.598 29.1299 192.129 29.0319 191.746 28.8359C191.368 28.6354 191.062 28.3437 190.83 27.9609C190.598 27.5735 190.431 27.0996 190.331 26.539C190.235 25.9739 190.188 25.3268 190.188 24.5976C190.188 23.9232 190.242 23.3056 190.352 22.7451C190.461 22.18 190.639 21.6969 190.885 21.2959C191.131 20.8903 191.454 20.5781 191.855 20.3594C192.257 20.136 192.749 20.0244 193.332 20.0244C193.893 20.0244 194.362 20.1247 194.74 20.3252C195.123 20.5211 195.431 20.8128 195.663 21.2002C195.896 21.583 196.06 22.0569 196.155 22.622C196.256 23.1826 196.306 23.8275 196.306 24.5566ZM195.103 24.6386C195.103 24.1966 195.087 23.8001 195.055 23.4492C195.023 23.0983 194.975 22.7884 194.911 22.5195C194.852 22.2506 194.772 22.0205 194.672 21.8291C194.576 21.6331 194.46 21.4736 194.323 21.3506C194.187 21.223 194.029 21.1318 193.852 21.0771C193.678 21.0179 193.482 20.9883 193.264 20.9883C192.876 20.9883 192.562 21.0794 192.32 21.2617C192.079 21.444 191.887 21.6946 191.746 22.0136C191.609 22.3327 191.516 22.7064 191.466 23.1347C191.416 23.5631 191.391 24.0234 191.391 24.5156C191.391 25.1764 191.425 25.7392 191.493 26.2041C191.562 26.6644 191.669 27.0403 191.814 27.332C191.965 27.6237 192.154 27.8356 192.382 27.9678C192.614 28.0999 192.895 28.166 193.223 28.166C193.478 28.166 193.701 28.125 193.893 28.0429C194.089 27.9609 194.255 27.8447 194.392 27.6943C194.533 27.5394 194.649 27.3548 194.74 27.1406C194.831 26.9264 194.904 26.6894 194.959 26.4297C195.014 26.1699 195.05 25.8896 195.068 25.5888C195.091 25.2835 195.103 24.9668 195.103 24.6386ZM203.401 24.5566C203.401 25.2357 203.347 25.8554 203.237 26.416C203.132 26.9765 202.955 27.4596 202.704 27.8652C202.458 28.2663 202.134 28.5784 201.733 28.8017C201.332 29.0205 200.838 29.1299 200.25 29.1299C199.694 29.1299 199.225 29.0319 198.842 28.8359C198.464 28.6354 198.158 28.3437 197.926 27.9609C197.693 27.5735 197.527 27.0996 197.427 26.539C197.331 25.9739 197.283 25.3268 197.283 24.5976C197.283 23.9232 197.338 23.3056 197.447 22.7451C197.557 22.18 197.734 21.6969 197.98 21.2959C198.227 20.8903 198.55 20.5781 198.951 20.3594C199.352 20.136 199.844 20.0244 200.428 20.0244C200.988 20.0244 201.458 20.1247 201.836 20.3252C202.219 20.5211 202.526 20.8128 202.759 21.2002C202.991 21.583 203.155 22.0569 203.251 22.622C203.351 23.1826 203.401 23.8275 203.401 24.5566ZM202.198 24.6386C202.198 24.1966 202.182 23.8001 202.15 23.4492C202.118 23.0983 202.071 22.7884 202.007 22.5195C201.948 22.2506 201.868 22.0205 201.768 21.8291C201.672 21.6331 201.556 21.4736 201.419 21.3506C201.282 21.223 201.125 21.1318 200.947 21.0771C200.774 21.0179 200.578 20.9883 200.359 20.9883C199.972 20.9883 199.658 21.0794 199.416 21.2617C199.174 21.444 198.983 21.6946 198.842 22.0136C198.705 22.3327 198.612 22.7064 198.562 23.1347C198.511 23.5631 198.486 24.0234 198.486 24.5156C198.486 25.1764 198.521 25.7392 198.589 26.2041C198.657 26.6644 198.764 27.0403 198.91 27.332C199.061 27.6237 199.25 27.8356 199.478 27.9678C199.71 28.0999 199.99 28.166 200.318 28.166C200.574 28.166 200.797 28.125 200.988 28.0429C201.184 27.9609 201.351 27.8447 201.487 27.6943C201.629 27.5394 201.745 27.3548 201.836 27.1406C201.927 26.9264 202 26.6894 202.055 26.4297C202.109 26.1699 202.146 25.8896 202.164 25.5888C202.187 25.2835 202.198 24.9668 202.198 24.6386Z" fill="#6B7073"/>
</svg>
